<?xml version="1.0" encoding="UTF-8" standalone="no"?>
<!DOCTYPE svg PUBLIC "-//W3C//DTD SVG 1.1//EN"
 "http://www.w3.org/Graphics/SVG/1.1/DTD/svg11.dtd">
<!-- Generated by graphviz version 2.43.0 (0)
 -->
<!-- Title: G Pages: 1 -->
<svg width="25094pt" height="256pt"
 viewBox="0.00 0.00 9034.00 92.00" xmlns="http://www.w3.org/2000/svg" xmlns:xlink="http://www.w3.org/1999/xlink">
<g id="graph0" class="graph" transform="scale(2.78 2.78) rotate(0) translate(4 88)">
<title>G</title>
<polygon fill="white" stroke="transparent" points="-4,4 -4,-88 9030,-88 9030,4 -4,4"/>
<!-- 137167406389088 -->
<g id="node1" class="node">
<title>137167406389088</title>
<polygon fill="none" stroke="black" points="0,-0.5 0,-83.5 237,-83.5 237,-0.5 0,-0.5"/>
<polygon fill="black" stroke="transparent" points="0,-0.5 0,-83.5 237,-83.5 237,-0.5 0,-0.5"/>
<polygon fill="black" stroke="transparent" points="2.5,-41 2.5,-81 235.5,-81 235.5,-41 2.5,-41"/>
<polygon fill="none" stroke="black" points="2.5,-41 2.5,-81 235.5,-81 235.5,-41 2.5,-41"/>
<text text-anchor="start" x="70" y="-58.2" font-family="Helvetica,sans-Serif" font-weight="bold" font-size="16.00" fill="white">InputLayer</text>
<polygon fill="white" stroke="transparent" points="2.5,-2 2.5,-39 233.5,-39 233.5,-2 2.5,-2"/>
<polygon fill="none" stroke="black" points="2.5,-2 2.5,-39 233.5,-39 233.5,-2 2.5,-2"/>
<text text-anchor="start" x="13.5" y="-17.8" font-family="Helvetica,sans-Serif" font-size="14.00">Output shape: </text>
<text text-anchor="start" x="118.5" y="-17.8" font-family="Helvetica,sans-Serif" font-weight="bold" font-size="14.00">(None, 50, 1)</text>
</g>
<!-- 137167406388800 -->
<g id="node2" class="node">
<title>137167406388800</title>
<polygon fill="none" stroke="black" points="273,-0.5 273,-83.5 739,-83.5 739,-0.5 273,-0.5"/>
<polygon fill="black" stroke="transparent" points="273,-0.5 273,-83.5 739,-83.5 739,-0.5 273,-0.5"/>
<polygon fill="black" stroke="transparent" points="275,-41 275,-81 737,-81 737,-41 275,-41"/>
<polygon fill="none" stroke="black" points="275,-41 275,-81 737,-81 737,-41 275,-41"/>
<text text-anchor="start" x="471" y="-58.2" font-family="Helvetica,sans-Serif" font-weight="bold" font-size="16.00" fill="white">Conv1D</text>
<polygon fill="white" stroke="transparent" points="275,-2 275,-39 494,-39 494,-2 275,-2"/>
<polygon fill="none" stroke="black" points="275,-2 275,-39 494,-39 494,-2 275,-2"/>
<text text-anchor="start" x="286" y="-17.8" font-family="Helvetica,sans-Serif" font-size="14.00">Input shape: </text>
<text text-anchor="start" x="379" y="-17.8" font-family="Helvetica,sans-Serif" font-weight="bold" font-size="14.00">(None, 50, 1)</text>
<polygon fill="white" stroke="transparent" points="496,-2 496,-39 737,-39 737,-2 496,-2"/>
<polygon fill="none" stroke="black" points="496,-2 496,-39 737,-39 737,-2 496,-2"/>
<text text-anchor="start" x="507" y="-17.8" font-family="Helvetica,sans-Serif" font-size="14.00">Output shape: </text>
<text text-anchor="start" x="612" y="-17.8" font-family="Helvetica,sans-Serif" font-weight="bold" font-size="14.00">(None, 50, 16)</text>
</g>
<!-- 137167406389088&#45;&gt;137167406388800 -->
<g id="edge1" class="edge">
<title>137167406389088&#45;&gt;137167406388800</title>
<path fill="none" stroke="black" stroke-width="2" d="M237.13,-42C237.13,-42 262.91,-42 262.91,-42"/>
<polygon fill="black" stroke="black" stroke-width="2" points="262.91,-45.5 272.91,-42 262.91,-38.5 262.91,-45.5"/>
</g>
<!-- 137167408171056 -->
<g id="node3" class="node">
<title>137167408171056</title>
<polygon fill="none" stroke="black" points="775,-0.5 775,-83.5 1251,-83.5 1251,-0.5 775,-0.5"/>
<polygon fill="black" stroke="transparent" points="775,-0.5 775,-83.5 1251,-83.5 1251,-0.5 775,-0.5"/>
<polygon fill="black" stroke="transparent" points="777,-41 777,-81 1249,-81 1249,-41 777,-41"/>
<polygon fill="none" stroke="black" points="777,-41 777,-81 1249,-81 1249,-41 777,-41"/>
<text text-anchor="start" x="924.5" y="-58.2" font-family="Helvetica,sans-Serif" font-weight="bold" font-size="16.00" fill="white">BatchNormalization</text>
<polygon fill="white" stroke="transparent" points="777,-2 777,-39 1006,-39 1006,-2 777,-2"/>
<polygon fill="none" stroke="black" points="777,-2 777,-39 1006,-39 1006,-2 777,-2"/>
<text text-anchor="start" x="788" y="-17.8" font-family="Helvetica,sans-Serif" font-size="14.00">Input shape: </text>
<text text-anchor="start" x="881" y="-17.8" font-family="Helvetica,sans-Serif" font-weight="bold" font-size="14.00">(None, 50, 16)</text>
<polygon fill="white" stroke="transparent" points="1008,-2 1008,-39 1249,-39 1249,-2 1008,-2"/>
<polygon fill="none" stroke="black" points="1008,-2 1008,-39 1249,-39 1249,-2 1008,-2"/>
<text text-anchor="start" x="1019" y="-17.8" font-family="Helvetica,sans-Serif" font-size="14.00">Output shape: </text>
<text text-anchor="start" x="1124" y="-17.8" font-family="Helvetica,sans-Serif" font-weight="bold" font-size="14.00">(None, 50, 16)</text>
</g>
<!-- 137167406388800&#45;&gt;137167408171056 -->
<g id="edge2" class="edge">
<title>137167406388800&#45;&gt;137167408171056</title>
<path fill="none" stroke="black" stroke-width="2" d="M739.1,-42C739.1,-42 764.68,-42 764.68,-42"/>
<polygon fill="black" stroke="black" stroke-width="2" points="764.68,-45.5 774.68,-42 764.68,-38.5 764.68,-45.5"/>
</g>
<!-- 137167408857216 -->
<g id="node4" class="node">
<title>137167408857216</title>
<polygon fill="none" stroke="black" points="1287,-0.5 1287,-83.5 1763,-83.5 1763,-0.5 1287,-0.5"/>
<polygon fill="black" stroke="transparent" points="1287,-0.5 1287,-83.5 1763,-83.5 1763,-0.5 1287,-0.5"/>
<polygon fill="black" stroke="transparent" points="1289,-41 1289,-81 1761,-81 1761,-41 1289,-41"/>
<polygon fill="none" stroke="black" points="1289,-41 1289,-81 1761,-81 1761,-41 1289,-41"/>
<text text-anchor="start" x="1490" y="-58.2" font-family="Helvetica,sans-Serif" font-weight="bold" font-size="16.00" fill="white">Conv1D</text>
<polygon fill="white" stroke="transparent" points="1289,-2 1289,-39 1518,-39 1518,-2 1289,-2"/>
<polygon fill="none" stroke="black" points="1289,-2 1289,-39 1518,-39 1518,-2 1289,-2"/>
<text text-anchor="start" x="1300" y="-17.8" font-family="Helvetica,sans-Serif" font-size="14.00">Input shape: </text>
<text text-anchor="start" x="1393" y="-17.8" font-family="Helvetica,sans-Serif" font-weight="bold" font-size="14.00">(None, 50, 16)</text>
<polygon fill="white" stroke="transparent" points="1520,-2 1520,-39 1761,-39 1761,-2 1520,-2"/>
<polygon fill="none" stroke="black" points="1520,-2 1520,-39 1761,-39 1761,-2 1520,-2"/>
<text text-anchor="start" x="1531" y="-17.8" font-family="Helvetica,sans-Serif" font-size="14.00">Output shape: </text>
<text text-anchor="start" x="1636" y="-17.8" font-family="Helvetica,sans-Serif" font-weight="bold" font-size="14.00">(None, 50, 32)</text>
</g>
<!-- 137167408171056&#45;&gt;137167408857216 -->
<g id="edge3" class="edge">
<title>137167408171056&#45;&gt;137167408857216</title>
<path fill="none" stroke="black" stroke-width="2" d="M1251.01,-42C1251.01,-42 1276.71,-42 1276.71,-42"/>
<polygon fill="black" stroke="black" stroke-width="2" points="1276.71,-45.5 1286.71,-42 1276.71,-38.5 1276.71,-45.5"/>
</g>
<!-- 137167406391680 -->
<g id="node5" class="node">
<title>137167406391680</title>
<polygon fill="none" stroke="black" points="1799,-0.5 1799,-83.5 2275,-83.5 2275,-0.5 1799,-0.5"/>
<polygon fill="black" stroke="transparent" points="1799,-0.5 1799,-83.5 2275,-83.5 2275,-0.5 1799,-0.5"/>
<polygon fill="black" stroke="transparent" points="1801,-41 1801,-81 2273,-81 2273,-41 1801,-41"/>
<polygon fill="none" stroke="black" points="1801,-41 1801,-81 2273,-81 2273,-41 1801,-41"/>
<text text-anchor="start" x="1948.5" y="-58.2" font-family="Helvetica,sans-Serif" font-weight="bold" font-size="16.00" fill="white">BatchNormalization</text>
<polygon fill="white" stroke="transparent" points="1801,-2 1801,-39 2030,-39 2030,-2 1801,-2"/>
<polygon fill="none" stroke="black" points="1801,-2 1801,-39 2030,-39 2030,-2 1801,-2"/>
<text text-anchor="start" x="1812" y="-17.8" font-family="Helvetica,sans-Serif" font-size="14.00">Input shape: </text>
<text text-anchor="start" x="1905" y="-17.8" font-family="Helvetica,sans-Serif" font-weight="bold" font-size="14.00">(None, 50, 32)</text>
<polygon fill="white" stroke="transparent" points="2032,-2 2032,-39 2273,-39 2273,-2 2032,-2"/>
<polygon fill="none" stroke="black" points="2032,-2 2032,-39 2273,-39 2273,-2 2032,-2"/>
<text text-anchor="start" x="2043" y="-17.8" font-family="Helvetica,sans-Serif" font-size="14.00">Output shape: </text>
<text text-anchor="start" x="2148" y="-17.8" font-family="Helvetica,sans-Serif" font-weight="bold" font-size="14.00">(None, 50, 32)</text>
</g>
<!-- 137167408857216&#45;&gt;137167406391680 -->
<g id="edge4" class="edge">
<title>137167408857216&#45;&gt;137167406391680</title>
<path fill="none" stroke="black" stroke-width="2" d="M1763.01,-42C1763.01,-42 1788.71,-42 1788.71,-42"/>
<polygon fill="black" stroke="black" stroke-width="2" points="1788.71,-45.5 1798.71,-42 1788.71,-38.5 1788.71,-45.5"/>
</g>
<!-- 137167406393408 -->
<g id="node6" class="node">
<title>137167406393408</title>
<polygon fill="none" stroke="black" points="2311,-0.5 2311,-83.5 2787,-83.5 2787,-0.5 2311,-0.5"/>
<polygon fill="black" stroke="transparent" points="2311,-0.5 2311,-83.5 2787,-83.5 2787,-0.5 2311,-0.5"/>
<polygon fill="black" stroke="transparent" points="2313,-41 2313,-81 2785,-81 2785,-41 2313,-41"/>
<polygon fill="none" stroke="black" points="2313,-41 2313,-81 2785,-81 2785,-41 2313,-41"/>
<text text-anchor="start" x="2514" y="-58.2" font-family="Helvetica,sans-Serif" font-weight="bold" font-size="16.00" fill="white">Conv1D</text>
<polygon fill="white" stroke="transparent" points="2313,-2 2313,-39 2542,-39 2542,-2 2313,-2"/>
<polygon fill="none" stroke="black" points="2313,-2 2313,-39 2542,-39 2542,-2 2313,-2"/>
<text text-anchor="start" x="2324" y="-17.8" font-family="Helvetica,sans-Serif" font-size="14.00">Input shape: </text>
<text text-anchor="start" x="2417" y="-17.8" font-family="Helvetica,sans-Serif" font-weight="bold" font-size="14.00">(None, 50, 32)</text>
<polygon fill="white" stroke="transparent" points="2544,-2 2544,-39 2785,-39 2785,-2 2544,-2"/>
<polygon fill="none" stroke="black" points="2544,-2 2544,-39 2785,-39 2785,-2 2544,-2"/>
<text text-anchor="start" x="2555" y="-17.8" font-family="Helvetica,sans-Serif" font-size="14.00">Output shape: </text>
<text text-anchor="start" x="2660" y="-17.8" font-family="Helvetica,sans-Serif" font-weight="bold" font-size="14.00">(None, 50, 64)</text>
</g>
<!-- 137167406391680&#45;&gt;137167406393408 -->
<g id="edge5" class="edge">
<title>137167406391680&#45;&gt;137167406393408</title>
<path fill="none" stroke="black" stroke-width="2" d="M2275.01,-42C2275.01,-42 2300.71,-42 2300.71,-42"/>
<polygon fill="black" stroke="black" stroke-width="2" points="2300.71,-45.5 2310.71,-42 2300.71,-38.5 2300.71,-45.5"/>
</g>
<!-- 137167406392592 -->
<g id="node7" class="node">
<title>137167406392592</title>
<polygon fill="none" stroke="black" points="2823,-0.5 2823,-83.5 3309,-83.5 3309,-0.5 2823,-0.5"/>
<polygon fill="black" stroke="transparent" points="2823,-0.5 2823,-83.5 3309,-83.5 3309,-0.5 2823,-0.5"/>
<polygon fill="black" stroke="transparent" points="2825,-41 2825,-81 3307,-81 3307,-41 2825,-41"/>
<polygon fill="none" stroke="black" points="2825,-41 2825,-81 3307,-81 3307,-41 2825,-41"/>
<text text-anchor="start" x="3031" y="-58.2" font-family="Helvetica,sans-Serif" font-weight="bold" font-size="16.00" fill="white">Conv1D</text>
<polygon fill="white" stroke="transparent" points="2825,-2 2825,-39 3054,-39 3054,-2 2825,-2"/>
<polygon fill="none" stroke="black" points="2825,-2 2825,-39 3054,-39 3054,-2 2825,-2"/>
<text text-anchor="start" x="2836" y="-17.8" font-family="Helvetica,sans-Serif" font-size="14.00">Input shape: </text>
<text text-anchor="start" x="2929" y="-17.8" font-family="Helvetica,sans-Serif" font-weight="bold" font-size="14.00">(None, 50, 64)</text>
<polygon fill="white" stroke="transparent" points="3056,-2 3056,-39 3307,-39 3307,-2 3056,-2"/>
<polygon fill="none" stroke="black" points="3056,-2 3056,-39 3307,-39 3307,-2 3056,-2"/>
<text text-anchor="start" x="3067" y="-17.8" font-family="Helvetica,sans-Serif" font-size="14.00">Output shape: </text>
<text text-anchor="start" x="3172" y="-17.8" font-family="Helvetica,sans-Serif" font-weight="bold" font-size="14.00">(None, 50, 128)</text>
</g>
<!-- 137167406393408&#45;&gt;137167406392592 -->
<g id="edge6" class="edge">
<title>137167406393408&#45;&gt;137167406392592</title>
<path fill="none" stroke="black" stroke-width="2" d="M2787.07,-42C2787.07,-42 2812.92,-42 2812.92,-42"/>
<polygon fill="black" stroke="black" stroke-width="2" points="2812.92,-45.5 2822.92,-42 2812.92,-38.5 2812.92,-45.5"/>
</g>
<!-- 137167406396960 -->
<g id="node8" class="node">
<title>137167406396960</title>
<polygon fill="none" stroke="black" points="3345,-0.5 3345,-83.5 3841,-83.5 3841,-0.5 3345,-0.5"/>
<polygon fill="black" stroke="transparent" points="3345,-0.5 3345,-83.5 3841,-83.5 3841,-0.5 3345,-0.5"/>
<polygon fill="black" stroke="transparent" points="3347,-41 3347,-81 3839,-81 3839,-41 3347,-41"/>
<polygon fill="none" stroke="black" points="3347,-41 3347,-81 3839,-81 3839,-41 3347,-41"/>
<text text-anchor="start" x="3504.5" y="-58.2" font-family="Helvetica,sans-Serif" font-weight="bold" font-size="16.00" fill="white">BatchNormalization</text>
<polygon fill="white" stroke="transparent" points="3347,-2 3347,-39 3586,-39 3586,-2 3347,-2"/>
<polygon fill="none" stroke="black" points="3347,-2 3347,-39 3586,-39 3586,-2 3347,-2"/>
<text text-anchor="start" x="3358" y="-17.8" font-family="Helvetica,sans-Serif" font-size="14.00">Input shape: </text>
<text text-anchor="start" x="3451" y="-17.8" font-family="Helvetica,sans-Serif" font-weight="bold" font-size="14.00">(None, 50, 128)</text>
<polygon fill="white" stroke="transparent" points="3588,-2 3588,-39 3839,-39 3839,-2 3588,-2"/>
<polygon fill="none" stroke="black" points="3588,-2 3588,-39 3839,-39 3839,-2 3588,-2"/>
<text text-anchor="start" x="3599" y="-17.8" font-family="Helvetica,sans-Serif" font-size="14.00">Output shape: </text>
<text text-anchor="start" x="3704" y="-17.8" font-family="Helvetica,sans-Serif" font-weight="bold" font-size="14.00">(None, 50, 128)</text>
</g>
<!-- 137167406392592&#45;&gt;137167406396960 -->
<g id="edge7" class="edge">
<title>137167406392592&#45;&gt;137167406396960</title>
<path fill="none" stroke="black" stroke-width="2" d="M3309.06,-42C3309.06,-42 3334.76,-42 3334.76,-42"/>
<polygon fill="black" stroke="black" stroke-width="2" points="3334.76,-45.5 3344.76,-42 3334.76,-38.5 3334.76,-45.5"/>
</g>
<!-- 137167390228704 -->
<g id="node9" class="node">
<title>137167390228704</title>
<polygon fill="none" stroke="black" points="3877,-0.5 3877,-83.5 4373,-83.5 4373,-0.5 3877,-0.5"/>
<polygon fill="black" stroke="transparent" points="3877,-0.5 3877,-83.5 4373,-83.5 4373,-0.5 3877,-0.5"/>
<polygon fill="black" stroke="transparent" points="3879,-41 3879,-81 4371,-81 4371,-41 3879,-41"/>
<polygon fill="none" stroke="black" points="3879,-41 3879,-81 4371,-81 4371,-41 3879,-41"/>
<text text-anchor="start" x="4090" y="-58.2" font-family="Helvetica,sans-Serif" font-weight="bold" font-size="16.00" fill="white">Conv1D</text>
<polygon fill="white" stroke="transparent" points="3879,-2 3879,-39 4118,-39 4118,-2 3879,-2"/>
<polygon fill="none" stroke="black" points="3879,-2 3879,-39 4118,-39 4118,-2 3879,-2"/>
<text text-anchor="start" x="3890" y="-17.8" font-family="Helvetica,sans-Serif" font-size="14.00">Input shape: </text>
<text text-anchor="start" x="3983" y="-17.8" font-family="Helvetica,sans-Serif" font-weight="bold" font-size="14.00">(None, 50, 128)</text>
<polygon fill="white" stroke="transparent" points="4120,-2 4120,-39 4371,-39 4371,-2 4120,-2"/>
<polygon fill="none" stroke="black" points="4120,-2 4120,-39 4371,-39 4371,-2 4120,-2"/>
<text text-anchor="start" x="4131" y="-17.8" font-family="Helvetica,sans-Serif" font-size="14.00">Output shape: </text>
<text text-anchor="start" x="4236" y="-17.8" font-family="Helvetica,sans-Serif" font-weight="bold" font-size="14.00">(None, 50, 256)</text>
</g>
<!-- 137167406396960&#45;&gt;137167390228704 -->
<g id="edge8" class="edge">
<title>137167406396960&#45;&gt;137167390228704</title>
<path fill="none" stroke="black" stroke-width="2" d="M3841.09,-42C3841.09,-42 3866.89,-42 3866.89,-42"/>
<polygon fill="black" stroke="black" stroke-width="2" points="3866.89,-45.5 3876.89,-42 3866.89,-38.5 3866.89,-45.5"/>
</g>
<!-- 137167390229472 -->
<g id="node10" class="node">
<title>137167390229472</title>
<polygon fill="none" stroke="black" points="4409,-0.5 4409,-83.5 4905,-83.5 4905,-0.5 4409,-0.5"/>
<polygon fill="black" stroke="transparent" points="4409,-0.5 4409,-83.5 4905,-83.5 4905,-0.5 4409,-0.5"/>
<polygon fill="black" stroke="transparent" points="4411,-41 4411,-81 4903,-81 4903,-41 4411,-41"/>
<polygon fill="none" stroke="black" points="4411,-41 4411,-81 4903,-81 4903,-41 4411,-41"/>
<text text-anchor="start" x="4568.5" y="-58.2" font-family="Helvetica,sans-Serif" font-weight="bold" font-size="16.00" fill="white">BatchNormalization</text>
<polygon fill="white" stroke="transparent" points="4411,-2 4411,-39 4650,-39 4650,-2 4411,-2"/>
<polygon fill="none" stroke="black" points="4411,-2 4411,-39 4650,-39 4650,-2 4411,-2"/>
<text text-anchor="start" x="4422" y="-17.8" font-family="Helvetica,sans-Serif" font-size="14.00">Input shape: </text>
<text text-anchor="start" x="4515" y="-17.8" font-family="Helvetica,sans-Serif" font-weight="bold" font-size="14.00">(None, 50, 256)</text>
<polygon fill="white" stroke="transparent" points="4652,-2 4652,-39 4903,-39 4903,-2 4652,-2"/>
<polygon fill="none" stroke="black" points="4652,-2 4652,-39 4903,-39 4903,-2 4652,-2"/>
<text text-anchor="start" x="4663" y="-17.8" font-family="Helvetica,sans-Serif" font-size="14.00">Output shape: </text>
<text text-anchor="start" x="4768" y="-17.8" font-family="Helvetica,sans-Serif" font-weight="bold" font-size="14.00">(None, 50, 256)</text>
</g>
<!-- 137167390228704&#45;&gt;137167390229472 -->
<g id="edge9" class="edge">
<title>137167390228704&#45;&gt;137167390229472</title>
<path fill="none" stroke="black" stroke-width="2" d="M4373.09,-42C4373.09,-42 4398.89,-42 4398.89,-42"/>
<polygon fill="black" stroke="black" stroke-width="2" points="4398.89,-45.5 4408.89,-42 4398.89,-38.5 4398.89,-45.5"/>
</g>
<!-- 137167390230912 -->
<g id="node11" class="node">
<title>137167390230912</title>
<polygon fill="none" stroke="black" points="4941,-0.5 4941,-83.5 5437,-83.5 5437,-0.5 4941,-0.5"/>
<polygon fill="black" stroke="transparent" points="4941,-0.5 4941,-83.5 5437,-83.5 5437,-0.5 4941,-0.5"/>
<polygon fill="black" stroke="transparent" points="4943,-41 4943,-81 5435,-81 5435,-41 4943,-41"/>
<polygon fill="none" stroke="black" points="4943,-41 4943,-81 5435,-81 5435,-41 4943,-41"/>
<text text-anchor="start" x="5154" y="-58.2" font-family="Helvetica,sans-Serif" font-weight="bold" font-size="16.00" fill="white">Conv1D</text>
<polygon fill="white" stroke="transparent" points="4943,-2 4943,-39 5182,-39 5182,-2 4943,-2"/>
<polygon fill="none" stroke="black" points="4943,-2 4943,-39 5182,-39 5182,-2 4943,-2"/>
<text text-anchor="start" x="4954" y="-17.8" font-family="Helvetica,sans-Serif" font-size="14.00">Input shape: </text>
<text text-anchor="start" x="5047" y="-17.8" font-family="Helvetica,sans-Serif" font-weight="bold" font-size="14.00">(None, 50, 256)</text>
<polygon fill="white" stroke="transparent" points="5184,-2 5184,-39 5435,-39 5435,-2 5184,-2"/>
<polygon fill="none" stroke="black" points="5184,-2 5184,-39 5435,-39 5435,-2 5184,-2"/>
<text text-anchor="start" x="5195" y="-17.8" font-family="Helvetica,sans-Serif" font-size="14.00">Output shape: </text>
<text text-anchor="start" x="5300" y="-17.8" font-family="Helvetica,sans-Serif" font-weight="bold" font-size="14.00">(None, 50, 512)</text>
</g>
<!-- 137167390229472&#45;&gt;137167390230912 -->
<g id="edge10" class="edge">
<title>137167390229472&#45;&gt;137167390230912</title>
<path fill="none" stroke="black" stroke-width="2" d="M4905.09,-42C4905.09,-42 4930.89,-42 4930.89,-42"/>
<polygon fill="black" stroke="black" stroke-width="2" points="4930.89,-45.5 4940.89,-42 4930.89,-38.5 4930.89,-45.5"/>
</g>
<!-- 137167390233072 -->
<g id="node12" class="node">
<title>137167390233072</title>
<polygon fill="none" stroke="black" points="5473,-0.5 5473,-83.5 5978,-83.5 5978,-0.5 5473,-0.5"/>
<polygon fill="black" stroke="transparent" points="5473,-0.5 5473,-83.5 5978,-83.5 5978,-0.5 5473,-0.5"/>
<polygon fill="black" stroke="transparent" points="5475.5,-41 5475.5,-81 5976.5,-81 5976.5,-41 5475.5,-41"/>
<polygon fill="none" stroke="black" points="5475.5,-41 5475.5,-81 5976.5,-81 5976.5,-41 5475.5,-41"/>
<text text-anchor="start" x="5691" y="-58.2" font-family="Helvetica,sans-Serif" font-weight="bold" font-size="16.00" fill="white">Conv1D</text>
<polygon fill="white" stroke="transparent" points="5475.5,-2 5475.5,-39 5714.5,-39 5714.5,-2 5475.5,-2"/>
<polygon fill="none" stroke="black" points="5475.5,-2 5475.5,-39 5714.5,-39 5714.5,-2 5475.5,-2"/>
<text text-anchor="start" x="5486.5" y="-17.8" font-family="Helvetica,sans-Serif" font-size="14.00">Input shape: </text>
<text text-anchor="start" x="5579.5" y="-17.8" font-family="Helvetica,sans-Serif" font-weight="bold" font-size="14.00">(None, 50, 512)</text>
<polygon fill="white" stroke="transparent" points="5716.5,-2 5716.5,-39 5976.5,-39 5976.5,-2 5716.5,-2"/>
<polygon fill="none" stroke="black" points="5716.5,-2 5716.5,-39 5976.5,-39 5976.5,-2 5716.5,-2"/>
<text text-anchor="start" x="5727.5" y="-17.8" font-family="Helvetica,sans-Serif" font-size="14.00">Output shape: </text>
<text text-anchor="start" x="5832.5" y="-17.8" font-family="Helvetica,sans-Serif" font-weight="bold" font-size="14.00">(None, 50, 1024)</text>
</g>
<!-- 137167390230912&#45;&gt;137167390233072 -->
<g id="edge11" class="edge">
<title>137167390230912&#45;&gt;137167390233072</title>
<path fill="none" stroke="black" stroke-width="2" d="M5437.23,-42C5437.23,-42 5462.68,-42 5462.68,-42"/>
<polygon fill="black" stroke="black" stroke-width="2" points="5462.68,-45.5 5472.68,-42 5462.68,-38.5 5462.68,-45.5"/>
</g>
<!-- 137167390235328 -->
<g id="node13" class="node">
<title>137167390235328</title>
<polygon fill="none" stroke="black" points="6014,-0.5 6014,-83.5 6528,-83.5 6528,-0.5 6014,-0.5"/>
<polygon fill="black" stroke="transparent" points="6014,-0.5 6014,-83.5 6528,-83.5 6528,-0.5 6014,-0.5"/>
<polygon fill="black" stroke="transparent" points="6016,-41 6016,-81 6526,-81 6526,-41 6016,-41"/>
<polygon fill="none" stroke="black" points="6016,-41 6016,-81 6526,-81 6526,-41 6016,-41"/>
<text text-anchor="start" x="6206" y="-58.2" font-family="Helvetica,sans-Serif" font-weight="bold" font-size="16.00" fill="white">MaxPooling1D</text>
<polygon fill="white" stroke="transparent" points="6016,-2 6016,-39 6264,-39 6264,-2 6016,-2"/>
<polygon fill="none" stroke="black" points="6016,-2 6016,-39 6264,-39 6264,-2 6016,-2"/>
<text text-anchor="start" x="6027" y="-17.8" font-family="Helvetica,sans-Serif" font-size="14.00">Input shape: </text>
<text text-anchor="start" x="6120" y="-17.8" font-family="Helvetica,sans-Serif" font-weight="bold" font-size="14.00">(None, 50, 1024)</text>
<polygon fill="white" stroke="transparent" points="6266,-2 6266,-39 6526,-39 6526,-2 6266,-2"/>
<polygon fill="none" stroke="black" points="6266,-2 6266,-39 6526,-39 6526,-2 6266,-2"/>
<text text-anchor="start" x="6277" y="-17.8" font-family="Helvetica,sans-Serif" font-size="14.00">Output shape: </text>
<text text-anchor="start" x="6382" y="-17.8" font-family="Helvetica,sans-Serif" font-weight="bold" font-size="14.00">(None, 25, 1024)</text>
</g>
<!-- 137167390233072&#45;&gt;137167390235328 -->
<g id="edge12" class="edge">
<title>137167390233072&#45;&gt;137167390235328</title>
<path fill="none" stroke="black" stroke-width="2" d="M5978.29,-42C5978.29,-42 6003.88,-42 6003.88,-42"/>
<polygon fill="black" stroke="black" stroke-width="2" points="6003.88,-45.5 6013.88,-42 6003.88,-38.5 6003.88,-45.5"/>
</g>
<!-- 137167390236768 -->
<g id="node14" class="node">
<title>137167390236768</title>
<polygon fill="none" stroke="black" points="6564,-0.5 6564,-83.5 7078,-83.5 7078,-0.5 6564,-0.5"/>
<polygon fill="black" stroke="transparent" points="6564,-0.5 6564,-83.5 7078,-83.5 7078,-0.5 6564,-0.5"/>
<polygon fill="black" stroke="transparent" points="6566,-41 6566,-81 7076,-81 7076,-41 6566,-41"/>
<polygon fill="none" stroke="black" points="6566,-41 6566,-81 7076,-81 7076,-41 6566,-41"/>
<text text-anchor="start" x="6732.5" y="-58.2" font-family="Helvetica,sans-Serif" font-weight="bold" font-size="16.00" fill="white">BatchNormalization</text>
<polygon fill="white" stroke="transparent" points="6566,-2 6566,-39 6814,-39 6814,-2 6566,-2"/>
<polygon fill="none" stroke="black" points="6566,-2 6566,-39 6814,-39 6814,-2 6566,-2"/>
<text text-anchor="start" x="6577" y="-17.8" font-family="Helvetica,sans-Serif" font-size="14.00">Input shape: </text>
<text text-anchor="start" x="6670" y="-17.8" font-family="Helvetica,sans-Serif" font-weight="bold" font-size="14.00">(None, 25, 1024)</text>
<polygon fill="white" stroke="transparent" points="6816,-2 6816,-39 7076,-39 7076,-2 6816,-2"/>
<polygon fill="none" stroke="black" points="6816,-2 6816,-39 7076,-39 7076,-2 6816,-2"/>
<text text-anchor="start" x="6827" y="-17.8" font-family="Helvetica,sans-Serif" font-size="14.00">Output shape: </text>
<text text-anchor="start" x="6932" y="-17.8" font-family="Helvetica,sans-Serif" font-weight="bold" font-size="14.00">(None, 25, 1024)</text>
</g>
<!-- 137167390235328&#45;&gt;137167390236768 -->
<g id="edge13" class="edge">
<title>137167390235328&#45;&gt;137167390236768</title>
<path fill="none" stroke="black" stroke-width="2" d="M6528.29,-42C6528.29,-42 6553.98,-42 6553.98,-42"/>
<polygon fill="black" stroke="black" stroke-width="2" points="6553.98,-45.5 6563.98,-42 6553.98,-38.5 6553.98,-45.5"/>
</g>
<!-- 137167390236720 -->
<g id="node15" class="node">
<title>137167390236720</title>
<polygon fill="none" stroke="black" points="7114,-0.5 7114,-83.5 7609,-83.5 7609,-0.5 7114,-0.5"/>
<polygon fill="black" stroke="transparent" points="7114,-0.5 7114,-83.5 7609,-83.5 7609,-0.5 7114,-0.5"/>
<polygon fill="black" stroke="transparent" points="7116.5,-41 7116.5,-81 7607.5,-81 7607.5,-41 7116.5,-41"/>
<polygon fill="none" stroke="black" points="7116.5,-41 7116.5,-81 7607.5,-81 7607.5,-41 7116.5,-41"/>
<text text-anchor="start" x="7330" y="-58.2" font-family="Helvetica,sans-Serif" font-weight="bold" font-size="16.00" fill="white">Flatten</text>
<polygon fill="white" stroke="transparent" points="7116.5,-2 7116.5,-39 7364.5,-39 7364.5,-2 7116.5,-2"/>
<polygon fill="none" stroke="black" points="7116.5,-2 7116.5,-39 7364.5,-39 7364.5,-2 7116.5,-2"/>
<text text-anchor="start" x="7127.5" y="-17.8" font-family="Helvetica,sans-Serif" font-size="14.00">Input shape: </text>
<text text-anchor="start" x="7220.5" y="-17.8" font-family="Helvetica,sans-Serif" font-weight="bold" font-size="14.00">(None, 25, 1024)</text>
<polygon fill="white" stroke="transparent" points="7366.5,-2 7366.5,-39 7607.5,-39 7607.5,-2 7366.5,-2"/>
<polygon fill="none" stroke="black" points="7366.5,-2 7366.5,-39 7607.5,-39 7607.5,-2 7366.5,-2"/>
<text text-anchor="start" x="7377.5" y="-17.8" font-family="Helvetica,sans-Serif" font-size="14.00">Output shape: </text>
<text text-anchor="start" x="7482.5" y="-17.8" font-family="Helvetica,sans-Serif" font-weight="bold" font-size="14.00">(None, 25600)</text>
</g>
<!-- 137167390236768&#45;&gt;137167390236720 -->
<g id="edge14" class="edge">
<title>137167390236768&#45;&gt;137167390236720</title>
<path fill="none" stroke="black" stroke-width="2" d="M7078.19,-42C7078.19,-42 7103.71,-42 7103.71,-42"/>
<polygon fill="black" stroke="black" stroke-width="2" points="7103.71,-45.5 7113.71,-42 7103.71,-38.5 7103.71,-45.5"/>
</g>
<!-- 137167390239120 -->
<g id="node16" class="node">
<title>137167390239120</title>
<polygon fill="none" stroke="black" points="7645,-0.5 7645,-83.5 8101,-83.5 8101,-0.5 7645,-0.5"/>
<polygon fill="black" stroke="transparent" points="7645,-0.5 7645,-83.5 8101,-83.5 8101,-0.5 7645,-0.5"/>
<polygon fill="black" stroke="transparent" points="7647,-41 7647,-81 8099,-81 8099,-41 7647,-41"/>
<polygon fill="none" stroke="black" points="7647,-41 7647,-81 8099,-81 8099,-41 7647,-41"/>
<text text-anchor="start" x="7845" y="-58.2" font-family="Helvetica,sans-Serif" font-weight="bold" font-size="16.00" fill="white">Dense</text>
<polygon fill="white" stroke="transparent" points="7647,-2 7647,-39 7876,-39 7876,-2 7647,-2"/>
<polygon fill="none" stroke="black" points="7647,-2 7647,-39 7876,-39 7876,-2 7647,-2"/>
<text text-anchor="start" x="7658" y="-17.8" font-family="Helvetica,sans-Serif" font-size="14.00">Input shape: </text>
<text text-anchor="start" x="7751" y="-17.8" font-family="Helvetica,sans-Serif" font-weight="bold" font-size="14.00">(None, 25600)</text>
<polygon fill="white" stroke="transparent" points="7878,-2 7878,-39 8099,-39 8099,-2 7878,-2"/>
<polygon fill="none" stroke="black" points="7878,-2 7878,-39 8099,-39 8099,-2 7878,-2"/>
<text text-anchor="start" x="7889" y="-17.8" font-family="Helvetica,sans-Serif" font-size="14.00">Output shape: </text>
<text text-anchor="start" x="7994" y="-17.8" font-family="Helvetica,sans-Serif" font-weight="bold" font-size="14.00">(None, 128)</text>
</g>
<!-- 137167390236720&#45;&gt;137167390239120 -->
<g id="edge15" class="edge">
<title>137167390236720&#45;&gt;137167390239120</title>
<path fill="none" stroke="black" stroke-width="2" d="M7609.01,-42C7609.01,-42 7634.93,-42 7634.93,-42"/>
<polygon fill="black" stroke="black" stroke-width="2" points="7634.93,-45.5 7644.93,-42 7634.93,-38.5 7634.93,-45.5"/>
</g>
<!-- 137167390239744 -->
<g id="node17" class="node">
<title>137167390239744</title>
<polygon fill="none" stroke="black" points="8137,-0.5 8137,-83.5 8573,-83.5 8573,-0.5 8137,-0.5"/>
<polygon fill="black" stroke="transparent" points="8137,-0.5 8137,-83.5 8573,-83.5 8573,-0.5 8137,-0.5"/>
<polygon fill="black" stroke="transparent" points="8139,-41 8139,-81 8571,-81 8571,-41 8139,-41"/>
<polygon fill="none" stroke="black" points="8139,-41 8139,-81 8571,-81 8571,-41 8139,-41"/>
<text text-anchor="start" x="8317.5" y="-58.2" font-family="Helvetica,sans-Serif" font-weight="bold" font-size="16.00" fill="white">Dropout</text>
<polygon fill="white" stroke="transparent" points="8139,-2 8139,-39 8348,-39 8348,-2 8139,-2"/>
<polygon fill="none" stroke="black" points="8139,-2 8139,-39 8348,-39 8348,-2 8139,-2"/>
<text text-anchor="start" x="8150" y="-17.8" font-family="Helvetica,sans-Serif" font-size="14.00">Input shape: </text>
<text text-anchor="start" x="8243" y="-17.8" font-family="Helvetica,sans-Serif" font-weight="bold" font-size="14.00">(None, 128)</text>
<polygon fill="white" stroke="transparent" points="8350,-2 8350,-39 8571,-39 8571,-2 8350,-2"/>
<polygon fill="none" stroke="black" points="8350,-2 8350,-39 8571,-39 8571,-2 8350,-2"/>
<text text-anchor="start" x="8361" y="-17.8" font-family="Helvetica,sans-Serif" font-size="14.00">Output shape: </text>
<text text-anchor="start" x="8466" y="-17.8" font-family="Helvetica,sans-Serif" font-weight="bold" font-size="14.00">(None, 128)</text>
</g>
<!-- 137167390239120&#45;&gt;137167390239744 -->
<g id="edge16" class="edge">
<title>137167390239120&#45;&gt;137167390239744</title>
<path fill="none" stroke="black" stroke-width="2" d="M8101.3,-42C8101.3,-42 8126.71,-42 8126.71,-42"/>
<polygon fill="black" stroke="black" stroke-width="2" points="8126.71,-45.5 8136.71,-42 8126.71,-38.5 8126.71,-45.5"/>
</g>
<!-- 137167390240080 -->
<g id="node18" class="node">
<title>137167390240080</title>
<polygon fill="none" stroke="black" points="8609,-0.5 8609,-83.5 9026,-83.5 9026,-0.5 8609,-0.5"/>
<polygon fill="black" stroke="transparent" points="8609,-0.5 8609,-83.5 9026,-83.5 9026,-0.5 8609,-0.5"/>
<polygon fill="black" stroke="transparent" points="8611.5,-41 8611.5,-81 9024.5,-81 9024.5,-41 8611.5,-41"/>
<polygon fill="none" stroke="black" points="8611.5,-41 8611.5,-81 9024.5,-81 9024.5,-41 8611.5,-41"/>
<text text-anchor="start" x="8790" y="-58.2" font-family="Helvetica,sans-Serif" font-weight="bold" font-size="16.00" fill="white">Dense</text>
<polygon fill="white" stroke="transparent" points="8611.5,-2 8611.5,-39 8820.5,-39 8820.5,-2 8611.5,-2"/>
<polygon fill="none" stroke="black" points="8611.5,-2 8611.5,-39 8820.5,-39 8820.5,-2 8611.5,-2"/>
<text text-anchor="start" x="8622.5" y="-17.8" font-family="Helvetica,sans-Serif" font-size="14.00">Input shape: </text>
<text text-anchor="start" x="8715.5" y="-17.8" font-family="Helvetica,sans-Serif" font-weight="bold" font-size="14.00">(None, 128)</text>
<polygon fill="white" stroke="transparent" points="8822.5,-2 8822.5,-39 9024.5,-39 9024.5,-2 8822.5,-2"/>
<polygon fill="none" stroke="black" points="8822.5,-2 8822.5,-39 9024.5,-39 9024.5,-2 8822.5,-2"/>
<text text-anchor="start" x="8833.5" y="-17.8" font-family="Helvetica,sans-Serif" font-size="14.00">Output shape: </text>
<text text-anchor="start" x="8938.5" y="-17.8" font-family="Helvetica,sans-Serif" font-weight="bold" font-size="14.00">(None, 1)</text>
</g>
<!-- 137167390239744&#45;&gt;137167390240080 -->
<g id="edge17" class="edge">
<title>137167390239744&#45;&gt;137167390240080</title>
<path fill="none" stroke="black" stroke-width="2" d="M8573.05,-42C8573.05,-42 8598.87,-42 8598.87,-42"/>
<polygon fill="black" stroke="black" stroke-width="2" points="8598.87,-45.5 8608.87,-42 8598.87,-38.5 8598.87,-45.5"/>
</g>
</g>
</svg>
