<?xml version="1.0" encoding="utf-8" standalone="no"?>
<!DOCTYPE svg PUBLIC "-//W3C//DTD SVG 1.1//EN"
  "http://www.w3.org/Graphics/SVG/1.1/DTD/svg11.dtd">
<svg xmlns:xlink="http://www.w3.org/1999/xlink" width="460.8pt" height="345.6pt" viewBox="0 0 460.8 345.6" xmlns="http://www.w3.org/2000/svg" version="1.1">
 <metadata>
  <rdf:RDF xmlns:dc="http://purl.org/dc/elements/1.1/" xmlns:cc="http://creativecommons.org/ns#" xmlns:rdf="http://www.w3.org/1999/02/22-rdf-syntax-ns#">
   <cc:Work>
    <dc:type rdf:resource="http://purl.org/dc/dcmitype/StillImage"/>
    <dc:date>2024-11-28T12:55:35.497222</dc:date>
    <dc:format>image/svg+xml</dc:format>
    <dc:creator>
     <cc:Agent>
      <dc:title>Matplotlib v3.9.1, https://matplotlib.org/</dc:title>
     </cc:Agent>
    </dc:creator>
   </cc:Work>
  </rdf:RDF>
 </metadata>
 <defs>
  <style type="text/css">*{stroke-linejoin: round; stroke-linecap: butt}</style>
 </defs>
 <g id="figure_1">
  <g id="patch_1">
   <path d="M 0 345.6 
L 460.8 345.6 
L 460.8 0 
L 0 0 
z
" style="fill: #ffffff"/>
  </g>
  <g id="axes_1">
   <g id="patch_2">
    <path d="M 57.6 307.584 
L 414.72 307.584 
L 414.72 41.472 
L 57.6 41.472 
z
" style="fill: #ffffff"/>
   </g>
   <g id="matplotlib.axis_1">
    <g id="xtick_1">
     <g id="line2d_1">
      <defs>
       <path id="mae1dd69335" d="M 0 0 
L 0 3.5 
" style="stroke: #000000; stroke-width: 0.8"/>
      </defs>
      <g>
       <use xlink:href="#mae1dd69335" x="73.832727" y="307.584" style="stroke: #000000; stroke-width: 0.8"/>
      </g>
     </g>
     <g id="text_1">
      <!-- 0 -->
      <g transform="translate(70.651477 322.182437) scale(0.1 -0.1)">
       <defs>
        <path id="DejaVuSans-30" d="M 2034 4250 
Q 1547 4250 1301 3770 
Q 1056 3291 1056 2328 
Q 1056 1369 1301 889 
Q 1547 409 2034 409 
Q 2525 409 2770 889 
Q 3016 1369 3016 2328 
Q 3016 3291 2770 3770 
Q 2525 4250 2034 4250 
z
M 2034 4750 
Q 2819 4750 3233 4129 
Q 3647 3509 3647 2328 
Q 3647 1150 3233 529 
Q 2819 -91 2034 -91 
Q 1250 -91 836 529 
Q 422 1150 422 2328 
Q 422 3509 836 4129 
Q 1250 4750 2034 4750 
z
" transform="scale(0.015625)"/>
       </defs>
       <use xlink:href="#DejaVuSans-30"/>
      </g>
     </g>
    </g>
    <g id="xtick_2">
     <g id="line2d_2">
      <g>
       <use xlink:href="#mae1dd69335" x="114.618474" y="307.584" style="stroke: #000000; stroke-width: 0.8"/>
      </g>
     </g>
     <g id="text_2">
      <!-- 25 -->
      <g transform="translate(108.255974 322.182437) scale(0.1 -0.1)">
       <defs>
        <path id="DejaVuSans-32" d="M 1228 531 
L 3431 531 
L 3431 0 
L 469 0 
L 469 531 
Q 828 903 1448 1529 
Q 2069 2156 2228 2338 
Q 2531 2678 2651 2914 
Q 2772 3150 2772 3378 
Q 2772 3750 2511 3984 
Q 2250 4219 1831 4219 
Q 1534 4219 1204 4116 
Q 875 4013 500 3803 
L 500 4441 
Q 881 4594 1212 4672 
Q 1544 4750 1819 4750 
Q 2544 4750 2975 4387 
Q 3406 4025 3406 3419 
Q 3406 3131 3298 2873 
Q 3191 2616 2906 2266 
Q 2828 2175 2409 1742 
Q 1991 1309 1228 531 
z
" transform="scale(0.015625)"/>
        <path id="DejaVuSans-35" d="M 691 4666 
L 3169 4666 
L 3169 4134 
L 1269 4134 
L 1269 2991 
Q 1406 3038 1543 3061 
Q 1681 3084 1819 3084 
Q 2600 3084 3056 2656 
Q 3513 2228 3513 1497 
Q 3513 744 3044 326 
Q 2575 -91 1722 -91 
Q 1428 -91 1123 -41 
Q 819 9 494 109 
L 494 744 
Q 775 591 1075 516 
Q 1375 441 1709 441 
Q 2250 441 2565 725 
Q 2881 1009 2881 1497 
Q 2881 1984 2565 2268 
Q 2250 2553 1709 2553 
Q 1456 2553 1204 2497 
Q 953 2441 691 2322 
L 691 4666 
z
" transform="scale(0.015625)"/>
       </defs>
       <use xlink:href="#DejaVuSans-32"/>
       <use xlink:href="#DejaVuSans-35" x="63.623047"/>
      </g>
     </g>
    </g>
    <g id="xtick_3">
     <g id="line2d_3">
      <g>
       <use xlink:href="#mae1dd69335" x="155.404221" y="307.584" style="stroke: #000000; stroke-width: 0.8"/>
      </g>
     </g>
     <g id="text_3">
      <!-- 50 -->
      <g transform="translate(149.041721 322.182437) scale(0.1 -0.1)">
       <use xlink:href="#DejaVuSans-35"/>
       <use xlink:href="#DejaVuSans-30" x="63.623047"/>
      </g>
     </g>
    </g>
    <g id="xtick_4">
     <g id="line2d_4">
      <g>
       <use xlink:href="#mae1dd69335" x="196.189968" y="307.584" style="stroke: #000000; stroke-width: 0.8"/>
      </g>
     </g>
     <g id="text_4">
      <!-- 75 -->
      <g transform="translate(189.827468 322.182437) scale(0.1 -0.1)">
       <defs>
        <path id="DejaVuSans-37" d="M 525 4666 
L 3525 4666 
L 3525 4397 
L 1831 0 
L 1172 0 
L 2766 4134 
L 525 4134 
L 525 4666 
z
" transform="scale(0.015625)"/>
       </defs>
       <use xlink:href="#DejaVuSans-37"/>
       <use xlink:href="#DejaVuSans-35" x="63.623047"/>
      </g>
     </g>
    </g>
    <g id="xtick_5">
     <g id="line2d_5">
      <g>
       <use xlink:href="#mae1dd69335" x="236.975715" y="307.584" style="stroke: #000000; stroke-width: 0.8"/>
      </g>
     </g>
     <g id="text_5">
      <!-- 100 -->
      <g transform="translate(227.431965 322.182437) scale(0.1 -0.1)">
       <defs>
        <path id="DejaVuSans-31" d="M 794 531 
L 1825 531 
L 1825 4091 
L 703 3866 
L 703 4441 
L 1819 4666 
L 2450 4666 
L 2450 531 
L 3481 531 
L 3481 0 
L 794 0 
L 794 531 
z
" transform="scale(0.015625)"/>
       </defs>
       <use xlink:href="#DejaVuSans-31"/>
       <use xlink:href="#DejaVuSans-30" x="63.623047"/>
       <use xlink:href="#DejaVuSans-30" x="127.246094"/>
      </g>
     </g>
    </g>
    <g id="xtick_6">
     <g id="line2d_6">
      <g>
       <use xlink:href="#mae1dd69335" x="277.761462" y="307.584" style="stroke: #000000; stroke-width: 0.8"/>
      </g>
     </g>
     <g id="text_6">
      <!-- 125 -->
      <g transform="translate(268.217712 322.182437) scale(0.1 -0.1)">
       <use xlink:href="#DejaVuSans-31"/>
       <use xlink:href="#DejaVuSans-32" x="63.623047"/>
       <use xlink:href="#DejaVuSans-35" x="127.246094"/>
      </g>
     </g>
    </g>
    <g id="xtick_7">
     <g id="line2d_7">
      <g>
       <use xlink:href="#mae1dd69335" x="318.547209" y="307.584" style="stroke: #000000; stroke-width: 0.8"/>
      </g>
     </g>
     <g id="text_7">
      <!-- 150 -->
      <g transform="translate(309.003459 322.182437) scale(0.1 -0.1)">
       <use xlink:href="#DejaVuSans-31"/>
       <use xlink:href="#DejaVuSans-35" x="63.623047"/>
       <use xlink:href="#DejaVuSans-30" x="127.246094"/>
      </g>
     </g>
    </g>
    <g id="xtick_8">
     <g id="line2d_8">
      <g>
       <use xlink:href="#mae1dd69335" x="359.332956" y="307.584" style="stroke: #000000; stroke-width: 0.8"/>
      </g>
     </g>
     <g id="text_8">
      <!-- 175 -->
      <g transform="translate(349.789206 322.182437) scale(0.1 -0.1)">
       <use xlink:href="#DejaVuSans-31"/>
       <use xlink:href="#DejaVuSans-37" x="63.623047"/>
       <use xlink:href="#DejaVuSans-35" x="127.246094"/>
      </g>
     </g>
    </g>
    <g id="xtick_9">
     <g id="line2d_9">
      <g>
       <use xlink:href="#mae1dd69335" x="400.118703" y="307.584" style="stroke: #000000; stroke-width: 0.8"/>
      </g>
     </g>
     <g id="text_9">
      <!-- 200 -->
      <g transform="translate(390.574953 322.182437) scale(0.1 -0.1)">
       <use xlink:href="#DejaVuSans-32"/>
       <use xlink:href="#DejaVuSans-30" x="63.623047"/>
       <use xlink:href="#DejaVuSans-30" x="127.246094"/>
      </g>
     </g>
    </g>
   </g>
   <g id="matplotlib.axis_2">
    <g id="ytick_1">
     <g id="line2d_10">
      <defs>
       <path id="m228a80582a" d="M 0 0 
L -3.5 0 
" style="stroke: #000000; stroke-width: 0.8"/>
      </defs>
      <g>
       <use xlink:href="#m228a80582a" x="57.6" y="285.411141" style="stroke: #000000; stroke-width: 0.8"/>
      </g>
     </g>
     <g id="text_10">
      <!-- 0.2 -->
      <g transform="translate(34.696875 289.21036) scale(0.1 -0.1)">
       <defs>
        <path id="DejaVuSans-2e" d="M 684 794 
L 1344 794 
L 1344 0 
L 684 0 
L 684 794 
z
" transform="scale(0.015625)"/>
       </defs>
       <use xlink:href="#DejaVuSans-30"/>
       <use xlink:href="#DejaVuSans-2e" x="63.623047"/>
       <use xlink:href="#DejaVuSans-32" x="95.410156"/>
      </g>
     </g>
    </g>
    <g id="ytick_2">
     <g id="line2d_11">
      <g>
       <use xlink:href="#m228a80582a" x="57.6" y="245.201559" style="stroke: #000000; stroke-width: 0.8"/>
      </g>
     </g>
     <g id="text_11">
      <!-- 0.4 -->
      <g transform="translate(34.696875 249.000778) scale(0.1 -0.1)">
       <defs>
        <path id="DejaVuSans-34" d="M 2419 4116 
L 825 1625 
L 2419 1625 
L 2419 4116 
z
M 2253 4666 
L 3047 4666 
L 3047 1625 
L 3713 1625 
L 3713 1100 
L 3047 1100 
L 3047 0 
L 2419 0 
L 2419 1100 
L 313 1100 
L 313 1709 
L 2253 4666 
z
" transform="scale(0.015625)"/>
       </defs>
       <use xlink:href="#DejaVuSans-30"/>
       <use xlink:href="#DejaVuSans-2e" x="63.623047"/>
       <use xlink:href="#DejaVuSans-34" x="95.410156"/>
      </g>
     </g>
    </g>
    <g id="ytick_3">
     <g id="line2d_12">
      <g>
       <use xlink:href="#m228a80582a" x="57.6" y="204.991977" style="stroke: #000000; stroke-width: 0.8"/>
      </g>
     </g>
     <g id="text_12">
      <!-- 0.6 -->
      <g transform="translate(34.696875 208.791196) scale(0.1 -0.1)">
       <defs>
        <path id="DejaVuSans-36" d="M 2113 2584 
Q 1688 2584 1439 2293 
Q 1191 2003 1191 1497 
Q 1191 994 1439 701 
Q 1688 409 2113 409 
Q 2538 409 2786 701 
Q 3034 994 3034 1497 
Q 3034 2003 2786 2293 
Q 2538 2584 2113 2584 
z
M 3366 4563 
L 3366 3988 
Q 3128 4100 2886 4159 
Q 2644 4219 2406 4219 
Q 1781 4219 1451 3797 
Q 1122 3375 1075 2522 
Q 1259 2794 1537 2939 
Q 1816 3084 2150 3084 
Q 2853 3084 3261 2657 
Q 3669 2231 3669 1497 
Q 3669 778 3244 343 
Q 2819 -91 2113 -91 
Q 1303 -91 875 529 
Q 447 1150 447 2328 
Q 447 3434 972 4092 
Q 1497 4750 2381 4750 
Q 2619 4750 2861 4703 
Q 3103 4656 3366 4563 
z
" transform="scale(0.015625)"/>
       </defs>
       <use xlink:href="#DejaVuSans-30"/>
       <use xlink:href="#DejaVuSans-2e" x="63.623047"/>
       <use xlink:href="#DejaVuSans-36" x="95.410156"/>
      </g>
     </g>
    </g>
    <g id="ytick_4">
     <g id="line2d_13">
      <g>
       <use xlink:href="#m228a80582a" x="57.6" y="164.782396" style="stroke: #000000; stroke-width: 0.8"/>
      </g>
     </g>
     <g id="text_13">
      <!-- 0.8 -->
      <g transform="translate(34.696875 168.581614) scale(0.1 -0.1)">
       <defs>
        <path id="DejaVuSans-38" d="M 2034 2216 
Q 1584 2216 1326 1975 
Q 1069 1734 1069 1313 
Q 1069 891 1326 650 
Q 1584 409 2034 409 
Q 2484 409 2743 651 
Q 3003 894 3003 1313 
Q 3003 1734 2745 1975 
Q 2488 2216 2034 2216 
z
M 1403 2484 
Q 997 2584 770 2862 
Q 544 3141 544 3541 
Q 544 4100 942 4425 
Q 1341 4750 2034 4750 
Q 2731 4750 3128 4425 
Q 3525 4100 3525 3541 
Q 3525 3141 3298 2862 
Q 3072 2584 2669 2484 
Q 3125 2378 3379 2068 
Q 3634 1759 3634 1313 
Q 3634 634 3220 271 
Q 2806 -91 2034 -91 
Q 1263 -91 848 271 
Q 434 634 434 1313 
Q 434 1759 690 2068 
Q 947 2378 1403 2484 
z
M 1172 3481 
Q 1172 3119 1398 2916 
Q 1625 2713 2034 2713 
Q 2441 2713 2670 2916 
Q 2900 3119 2900 3481 
Q 2900 3844 2670 4047 
Q 2441 4250 2034 4250 
Q 1625 4250 1398 4047 
Q 1172 3844 1172 3481 
z
" transform="scale(0.015625)"/>
       </defs>
       <use xlink:href="#DejaVuSans-30"/>
       <use xlink:href="#DejaVuSans-2e" x="63.623047"/>
       <use xlink:href="#DejaVuSans-38" x="95.410156"/>
      </g>
     </g>
    </g>
    <g id="ytick_5">
     <g id="line2d_14">
      <g>
       <use xlink:href="#m228a80582a" x="57.6" y="124.572814" style="stroke: #000000; stroke-width: 0.8"/>
      </g>
     </g>
     <g id="text_14">
      <!-- 1.0 -->
      <g transform="translate(34.696875 128.372033) scale(0.1 -0.1)">
       <use xlink:href="#DejaVuSans-31"/>
       <use xlink:href="#DejaVuSans-2e" x="63.623047"/>
       <use xlink:href="#DejaVuSans-30" x="95.410156"/>
      </g>
     </g>
    </g>
    <g id="ytick_6">
     <g id="line2d_15">
      <g>
       <use xlink:href="#m228a80582a" x="57.6" y="84.363232" style="stroke: #000000; stroke-width: 0.8"/>
      </g>
     </g>
     <g id="text_15">
      <!-- 1.2 -->
      <g transform="translate(34.696875 88.162451) scale(0.1 -0.1)">
       <use xlink:href="#DejaVuSans-31"/>
       <use xlink:href="#DejaVuSans-2e" x="63.623047"/>
       <use xlink:href="#DejaVuSans-32" x="95.410156"/>
      </g>
     </g>
    </g>
    <g id="ytick_7">
     <g id="line2d_16">
      <g>
       <use xlink:href="#m228a80582a" x="57.6" y="44.15365" style="stroke: #000000; stroke-width: 0.8"/>
      </g>
     </g>
     <g id="text_16">
      <!-- 1.4 -->
      <g transform="translate(34.696875 47.952869) scale(0.1 -0.1)">
       <use xlink:href="#DejaVuSans-31"/>
       <use xlink:href="#DejaVuSans-2e" x="63.623047"/>
       <use xlink:href="#DejaVuSans-34" x="95.410156"/>
      </g>
     </g>
    </g>
    <g id="text_17">
     <!-- 1e8 -->
     <g transform="translate(57.6 38.472) scale(0.1 -0.1)">
      <defs>
       <path id="DejaVuSans-65" d="M 3597 1894 
L 3597 1613 
L 953 1613 
Q 991 1019 1311 708 
Q 1631 397 2203 397 
Q 2534 397 2845 478 
Q 3156 559 3463 722 
L 3463 178 
Q 3153 47 2828 -22 
Q 2503 -91 2169 -91 
Q 1331 -91 842 396 
Q 353 884 353 1716 
Q 353 2575 817 3079 
Q 1281 3584 2069 3584 
Q 2775 3584 3186 3129 
Q 3597 2675 3597 1894 
z
M 3022 2063 
Q 3016 2534 2758 2815 
Q 2500 3097 2075 3097 
Q 1594 3097 1305 2825 
Q 1016 2553 972 2059 
L 3022 2063 
z
" transform="scale(0.015625)"/>
      </defs>
      <use xlink:href="#DejaVuSans-31"/>
      <use xlink:href="#DejaVuSans-65" x="63.623047"/>
      <use xlink:href="#DejaVuSans-38" x="125.146484"/>
     </g>
    </g>
   </g>
   <g id="line2d_17">
    <path d="M 73.832727 62.722499 
L 75.464157 108.880076 
L 77.095587 122.359341 
L 78.727017 132.474093 
L 80.358447 145.750364 
L 81.989877 151.427861 
L 83.621307 152.729027 
L 85.252736 158.894539 
L 86.884166 160.282445 
L 88.515596 163.596245 
L 91.778456 165.046814 
L 93.409886 169.19707 
L 95.041316 169.451806 
L 96.672746 159.472431 
L 98.304175 164.722709 
L 99.935605 170.434013 
L 101.567035 171.082127 
L 103.198465 169.714117 
L 104.829895 172.814067 
L 106.461325 175.303136 
L 108.092755 178.091735 
L 109.724185 178.38401 
L 111.355614 177.483991 
L 112.987044 177.36169 
L 114.618474 178.89546 
L 116.249904 181.325245 
L 117.881334 180.377376 
L 119.512764 179.955144 
L 121.144194 179.793372 
L 122.775624 182.008132 
L 124.407053 182.210274 
L 126.038483 177.092913 
L 127.669913 177.025168 
L 129.301343 180.763694 
L 130.932773 183.175272 
L 132.564203 184.787595 
L 134.195633 183.251557 
L 135.827063 185.247432 
L 137.458492 183.669833 
L 139.089922 183.154556 
L 142.352782 185.513346 
L 143.984212 187.188236 
L 145.615642 183.536273 
L 147.247072 186.016545 
L 148.878502 188.700358 
L 150.509931 187.971052 
L 152.141361 188.616641 
L 153.772791 188.677712 
L 155.404221 187.227545 
L 157.035651 189.81315 
L 158.667081 189.714604 
L 160.298511 189.398686 
L 161.929941 190.16775 
L 163.56137 190.192262 
L 165.1928 189.159052 
L 166.82423 190.680503 
L 168.45566 190.351717 
L 170.08709 186.358696 
L 171.71852 190.303305 
L 173.34995 191.444372 
L 174.98138 192.42633 
L 176.61281 192.275617 
L 178.244239 191.748453 
L 179.875669 192.514397 
L 181.507099 192.744573 
L 183.138529 192.226714 
L 184.769959 185.471898 
L 186.401389 188.710281 
L 188.032819 192.46576 
L 189.664249 193.026796 
L 191.295678 193.790899 
L 194.558538 194.120843 
L 196.189968 195.628766 
L 197.821398 194.497108 
L 199.452828 193.998525 
L 201.084258 194.382832 
L 202.715688 194.069535 
L 204.347117 194.925476 
L 205.978547 194.939614 
L 207.609977 195.586144 
L 209.241407 197.008196 
L 210.872837 195.106178 
L 212.504267 196.054658 
L 214.135697 195.407662 
L 215.767127 196.098575 
L 217.398556 197.514596 
L 219.029986 197.556647 
L 220.661416 197.871375 
L 222.292846 196.80094 
L 223.924276 197.679897 
L 225.555706 199.300979 
L 227.187136 197.713175 
L 228.818566 190.440017 
L 230.449995 188.641925 
L 232.081425 194.02676 
L 233.712855 196.516747 
L 235.344285 198.388366 
L 236.975715 199.101426 
L 238.607145 199.084337 
L 240.238575 200.240307 
L 241.870005 200.536442 
L 243.501434 198.497326 
L 245.132864 199.700485 
L 246.764294 197.695635 
L 250.027154 200.843249 
L 251.658584 200.621751 
L 253.290014 200.127945 
L 254.921444 201.661554 
L 256.552873 202.179164 
L 258.184303 201.637959 
L 261.447163 201.474427 
L 263.078593 202.520471 
L 264.710023 202.324216 
L 266.341453 203.362717 
L 267.972883 202.206555 
L 269.604312 202.651273 
L 271.235742 204.01745 
L 272.867172 203.647932 
L 274.498602 202.874493 
L 276.130032 204.090704 
L 277.761462 204.450282 
L 279.392892 205.102264 
L 281.024322 204.852965 
L 282.655751 205.708496 
L 284.287181 204.46647 
L 285.918611 205.308186 
L 287.550041 206.013381 
L 289.181471 207.585109 
L 290.812901 206.765526 
L 292.444331 207.074625 
L 294.075761 207.024347 
L 295.70719 206.310184 
L 297.33862 207.470673 
L 298.97005 207.749398 
L 300.60148 206.986284 
L 302.23291 206.485128 
L 303.86434 207.038323 
L 305.49577 208.549359 
L 307.1272 208.764537 
L 308.75863 207.604788 
L 310.390059 209.066905 
L 312.021489 206.747753 
L 313.652919 209.103512 
L 315.284349 210.554772 
L 316.915779 209.577309 
L 318.547209 210.007857 
L 320.178639 209.087999 
L 321.810069 212.110601 
L 323.441498 208.895113 
L 325.072928 209.768337 
L 326.704358 202.604863 
L 328.335788 210.993442 
L 329.967218 210.541447 
L 331.598648 212.514844 
L 334.861508 213.949522 
L 336.492937 214.130578 
L 338.124367 213.876775 
L 339.755797 213.478041 
L 341.387227 214.033617 
L 343.018657 213.995265 
L 344.650087 215.224576 
L 346.281517 193.405345 
L 347.912947 204.384547 
L 349.544376 210.606594 
L 351.175806 212.528218 
L 352.807236 212.942296 
L 354.438666 215.291413 
L 356.070096 216.536824 
L 357.701526 217.235602 
L 359.332956 218.460161 
L 360.964386 218.586925 
L 362.595815 217.417422 
L 365.858675 218.750064 
L 367.490105 219.658535 
L 369.121535 218.404897 
L 370.752965 189.347346 
L 372.384395 183.175465 
L 374.015825 190.569106 
L 375.647254 181.37229 
L 378.910114 195.515632 
L 380.541544 200.521114 
L 382.172974 203.871361 
L 383.804404 202.92317 
L 385.435834 208.019486 
L 387.067264 204.627759 
L 388.698693 191.605339 
L 390.330123 198.701727 
L 391.961553 195.627785 
L 393.592983 196.479215 
L 395.224413 204.537271 
L 396.855843 209.393857 
L 398.487273 174.003691 
L 398.487273 174.003691 
" clip-path="url(#p0e4a9f094d)" style="fill: none; stroke: #1f77b4; stroke-width: 1.5; stroke-linecap: square"/>
   </g>
   <g id="line2d_18">
    <path d="M 73.832727 67.889495 
L 75.464157 98.303556 
L 77.095587 111.19589 
L 78.727017 122.721935 
L 80.358447 128.571882 
L 81.989877 137.142474 
L 83.621307 142.40311 
L 85.252736 145.13839 
L 86.884166 150.356034 
L 88.515596 150.653038 
L 90.147026 152.010321 
L 91.778456 157.75561 
L 95.041316 167.152783 
L 96.672746 168.397848 
L 98.304175 173.908137 
L 99.935605 169.918317 
L 101.567035 177.629212 
L 103.198465 167.702415 
L 104.829895 179.661903 
L 106.461325 176.958082 
L 108.092755 181.07408 
L 109.724185 186.017671 
L 111.355614 187.278322 
L 112.987044 188.949963 
L 114.618474 188.166021 
L 116.249904 192.464433 
L 117.881334 195.932276 
L 119.512764 196.179372 
L 121.144194 200.135368 
L 122.775624 198.707759 
L 124.407053 201.948973 
L 126.038483 201.957746 
L 127.669913 201.218541 
L 129.301343 199.940737 
L 130.932773 202.913986 
L 132.564203 206.438437 
L 134.195633 204.721383 
L 135.827063 206.822285 
L 137.458492 206.754098 
L 139.089922 208.734283 
L 140.721352 202.268518 
L 142.352782 208.705702 
L 143.984212 211.34908 
L 145.615642 210.066499 
L 147.247072 210.559267 
L 148.878502 210.156488 
L 150.509931 203.80019 
L 152.141361 211.323338 
L 153.772791 212.315188 
L 155.404221 212.454401 
L 157.035651 214.423006 
L 158.667081 214.647601 
L 160.298511 214.256345 
L 161.929941 214.426657 
L 163.56137 214.113521 
L 165.1928 217.252739 
L 166.82423 215.803546 
L 168.45566 216.366062 
L 170.08709 216.743775 
L 171.71852 217.270794 
L 173.34995 218.368322 
L 174.98138 216.934698 
L 176.61281 217.538388 
L 178.244239 219.690148 
L 179.875669 220.063952 
L 181.507099 219.802638 
L 183.138529 218.939435 
L 184.769959 219.871549 
L 186.401389 219.564002 
L 188.032819 220.892744 
L 189.664249 218.923657 
L 191.295678 219.261489 
L 192.927108 222.159885 
L 194.558538 222.235479 
L 196.189968 223.131975 
L 197.821398 221.892499 
L 199.452828 222.089896 
L 201.084258 222.853685 
L 202.715688 222.049638 
L 204.347117 222.023799 
L 205.978547 220.446265 
L 207.609977 222.022239 
L 209.241407 224.497364 
L 210.872837 223.16132 
L 212.504267 224.744388 
L 214.135697 225.434151 
L 215.767127 225.533959 
L 217.398556 226.202966 
L 219.029986 225.204176 
L 220.661416 225.348882 
L 222.292846 224.077801 
L 223.924276 224.607884 
L 225.555706 224.857618 
L 227.187136 226.394291 
L 228.818566 225.940663 
L 230.449995 226.301343 
L 232.081425 226.794353 
L 233.712855 226.592766 
L 235.344285 227.486528 
L 236.975715 226.97335 
L 240.238575 226.969851 
L 241.870005 226.308146 
L 243.501434 228.189488 
L 245.132864 227.253281 
L 246.764294 227.179279 
L 248.395724 228.022007 
L 250.027154 228.2147 
L 253.290014 229.077879 
L 254.921444 225.418598 
L 256.552873 228.27992 
L 258.184303 228.747525 
L 259.815733 228.570739 
L 261.447163 229.047448 
L 263.078593 228.089439 
L 264.710023 229.409045 
L 266.341453 229.2369 
L 267.972883 229.753995 
L 269.604312 230.681188 
L 271.235742 229.518881 
L 272.867172 230.136951 
L 274.498602 229.818998 
L 279.392892 230.475942 
L 281.024322 232.141519 
L 282.655751 230.831604 
L 284.287181 231.021698 
L 285.918611 232.161769 
L 287.550041 231.117228 
L 290.812901 232.729938 
L 292.444331 231.132275 
L 294.075761 232.531608 
L 295.70719 232.231154 
L 297.33862 232.524451 
L 298.97005 232.273736 
L 300.60148 233.612024 
L 302.23291 231.730272 
L 303.86434 232.460124 
L 305.49577 232.882075 
L 308.75863 233.179256 
L 310.390059 233.227853 
L 312.021489 232.94099 
L 313.652919 234.206683 
L 315.284349 233.808134 
L 316.915779 234.777909 
L 318.547209 234.169305 
L 320.178639 232.659065 
L 321.810069 234.571561 
L 323.441498 233.901099 
L 325.072928 235.324413 
L 326.704358 234.506293 
L 328.335788 233.90824 
L 329.967218 234.673002 
L 331.598648 235.235421 
L 333.230078 234.784648 
L 336.492937 235.667224 
L 339.755797 235.954747 
L 341.387227 236.645933 
L 344.650087 236.659725 
L 346.281517 235.881999 
L 347.912947 236.155401 
L 349.544376 237.127113 
L 351.175806 238.35197 
L 352.807236 236.376199 
L 354.438666 237.416614 
L 356.070096 238.069811 
L 357.701526 236.443454 
L 359.332956 236.688314 
L 360.964386 238.290095 
L 362.595815 237.252849 
L 364.227245 236.441226 
L 365.858675 237.121291 
L 367.490105 237.548566 
L 369.121535 239.023349 
L 370.752965 238.897364 
L 372.384395 237.988322 
L 374.015825 237.783752 
L 375.647254 238.13343 
L 377.278684 237.334201 
L 378.910114 237.888506 
L 380.541544 239.376276 
L 382.172974 239.646284 
L 383.804404 238.8513 
L 387.067264 238.96597 
L 388.698693 239.818566 
L 390.330123 238.674812 
L 391.961553 239.67587 
L 393.592983 240.274446 
L 395.224413 240.037981 
L 396.855843 236.989251 
L 398.487273 239.57258 
L 398.487273 239.57258 
" clip-path="url(#p0e4a9f094d)" style="fill: none; stroke: #ff7f0e; stroke-width: 1.5; stroke-linecap: square"/>
   </g>
   <g id="line2d_19">
    <path d="M 73.832727 53.568 
L 75.464157 74.638609 
L 80.358447 85.396297 
L 81.989877 86.911297 
L 85.252736 91.299208 
L 86.884166 100.119887 
L 90.147026 116.403433 
L 91.778456 118.835003 
L 93.409886 122.578949 
L 95.041316 124.564289 
L 96.672746 126.994798 
L 98.304175 131.535457 
L 99.935605 131.351635 
L 101.567035 133.828545 
L 103.198465 135.535667 
L 104.829895 134.284956 
L 106.461325 135.0256 
L 108.092755 137.63221 
L 111.355614 140.456033 
L 112.987044 140.25513 
L 114.618474 138.899616 
L 116.249904 138.067021 
L 117.881334 141.503106 
L 119.512764 145.668739 
L 121.144194 146.543281 
L 122.775624 148.599808 
L 124.407053 151.147648 
L 126.038483 151.546302 
L 127.669913 153.216463 
L 129.301343 157.399884 
L 132.564203 163.759818 
L 134.195633 167.281502 
L 135.827063 163.969969 
L 137.458492 165.875598 
L 139.089922 174.912203 
L 142.352782 182.042198 
L 143.984212 178.264958 
L 145.615642 178.230989 
L 147.247072 188.05842 
L 148.878502 191.46886 
L 150.509931 196.113171 
L 152.141361 198.186675 
L 153.772791 203.017928 
L 155.404221 205.775131 
L 157.035651 210.003981 
L 158.667081 210.936039 
L 160.298511 211.341183 
L 161.929941 216.264814 
L 163.56137 217.999536 
L 165.1928 221.977003 
L 166.82423 223.657788 
L 168.45566 224.680816 
L 170.08709 226.836516 
L 171.71852 229.820646 
L 173.34995 231.392101 
L 176.61281 233.858573 
L 178.244239 235.916178 
L 179.875669 236.807262 
L 181.507099 238.124062 
L 183.138529 239.224164 
L 184.769959 240.990482 
L 186.401389 241.724757 
L 188.032819 242.925037 
L 189.664249 243.488438 
L 191.295678 245.097569 
L 192.927108 245.742499 
L 194.558538 245.863811 
L 196.189968 247.71654 
L 197.821398 248.344646 
L 199.452828 248.506377 
L 202.715688 250.664055 
L 205.978547 251.784173 
L 207.609977 252.119192 
L 209.241407 253.218562 
L 210.872837 253.509888 
L 212.504267 254.431492 
L 214.135697 253.895466 
L 215.767127 255.626673 
L 217.398556 255.612688 
L 219.029986 256.42834 
L 220.661416 257.007744 
L 222.292846 258.232628 
L 223.924276 258.09144 
L 225.555706 258.179994 
L 227.187136 258.627587 
L 230.449995 260.122479 
L 232.081425 259.878362 
L 233.712855 261.118325 
L 235.344285 261.455237 
L 238.607145 261.315682 
L 240.238575 262.223892 
L 241.870005 262.122829 
L 243.501434 262.538363 
L 245.132864 263.925581 
L 248.395724 264.118527 
L 250.027154 264.388414 
L 251.658584 264.502287 
L 253.290014 265.314734 
L 254.921444 265.615654 
L 256.552873 265.201142 
L 258.184303 266.066947 
L 259.815733 266.269768 
L 261.447163 267.096408 
L 263.078593 266.377007 
L 264.710023 267.418379 
L 266.341453 267.296363 
L 267.972883 268.536772 
L 269.604312 267.865388 
L 271.235742 267.624658 
L 272.867172 268.659532 
L 274.498602 269.279399 
L 276.130032 269.212373 
L 279.392892 269.425235 
L 281.024322 269.81263 
L 282.655751 270.360831 
L 285.918611 270.561477 
L 287.550041 270.848525 
L 289.181471 270.963746 
L 290.812901 270.850697 
L 292.444331 272.567674 
L 294.075761 271.339267 
L 295.70719 271.279069 
L 297.33862 272.124842 
L 298.97005 272.811859 
L 300.60148 272.06495 
L 302.23291 273.44594 
L 303.86434 272.952628 
L 305.49577 272.738742 
L 307.1272 274.035396 
L 308.75863 274.065589 
L 310.390059 274.390028 
L 312.021489 273.772667 
L 313.652919 273.776828 
L 315.284349 274.019935 
L 316.915779 274.506037 
L 318.547209 275.638685 
L 320.178639 274.757994 
L 321.810069 275.388975 
L 323.441498 275.357949 
L 325.072928 275.788136 
L 326.704358 276.34388 
L 328.335788 275.068931 
L 329.967218 276.039558 
L 331.598648 276.403507 
L 333.230078 277.091405 
L 334.861508 276.632879 
L 336.492937 277.26318 
L 338.124367 276.914024 
L 339.755797 277.590562 
L 341.387227 277.753005 
L 343.018657 277.220666 
L 344.650087 278.031545 
L 346.281517 277.54669 
L 347.912947 278.075019 
L 349.544376 278.125173 
L 351.175806 278.714858 
L 352.807236 278.448188 
L 356.070096 278.979936 
L 357.701526 278.971629 
L 359.332956 279.503919 
L 360.964386 279.499203 
L 362.595815 278.995706 
L 364.227245 279.907044 
L 367.490105 279.722836 
L 369.121535 279.777996 
L 370.752965 280.345852 
L 372.384395 279.93033 
L 377.278684 281.202826 
L 378.910114 281.168387 
L 380.541544 280.746218 
L 382.172974 281.051441 
L 385.435834 281.348216 
L 387.067264 281.921705 
L 388.698693 281.773107 
L 390.330123 281.927805 
L 391.961553 282.451961 
L 393.592983 282.059306 
L 396.855843 282.684256 
L 398.487273 282.903861 
L 398.487273 282.903861 
" clip-path="url(#p0e4a9f094d)" style="fill: none; stroke: #2ca02c; stroke-width: 1.5; stroke-linecap: square"/>
   </g>
   <g id="line2d_20">
    <path d="M 73.832727 58.854708 
L 75.464157 73.288902 
L 77.095587 76.920712 
L 80.358447 80.940206 
L 81.989877 81.991349 
L 85.252736 85.928446 
L 86.884166 89.577369 
L 90.147026 105.718107 
L 93.409886 116.143856 
L 95.041316 122.579191 
L 96.672746 127.224314 
L 98.304175 128.740907 
L 99.935605 131.473534 
L 101.567035 132.055801 
L 103.198465 134.462393 
L 104.829895 136.492993 
L 106.461325 137.187187 
L 108.092755 140.572528 
L 109.724185 141.100625 
L 111.355614 143.362671 
L 112.987044 147.108338 
L 114.618474 145.999551 
L 116.249904 148.822151 
L 117.881334 149.200105 
L 119.512764 151.086578 
L 121.144194 151.373915 
L 122.775624 152.006203 
L 124.407053 153.719196 
L 126.038483 154.747741 
L 127.669913 154.431967 
L 129.301343 157.45243 
L 130.932773 157.635931 
L 132.564203 157.933546 
L 134.195633 159.528901 
L 135.827063 160.638718 
L 137.458492 161.469769 
L 139.089922 162.505826 
L 140.721352 163.938943 
L 142.352782 164.825275 
L 143.984212 166.580375 
L 145.615642 167.810997 
L 147.247072 168.603335 
L 148.878502 169.671881 
L 150.509931 170.100885 
L 152.141361 172.65474 
L 155.404221 176.465386 
L 157.035651 177.110605 
L 158.667081 179.48987 
L 160.298511 181.201367 
L 161.929941 181.887584 
L 165.1928 186.556125 
L 166.82423 189.195145 
L 168.45566 190.068223 
L 170.08709 192.836983 
L 171.71852 194.783496 
L 173.34995 196.001211 
L 174.98138 198.417421 
L 176.61281 200.445665 
L 178.244239 202.985608 
L 179.875669 204.56882 
L 181.507099 206.540271 
L 183.138529 208.88938 
L 184.769959 209.266071 
L 186.401389 211.419254 
L 188.032819 214.059544 
L 189.664249 215.636982 
L 191.295678 217.610991 
L 192.927108 218.103823 
L 194.558538 220.729622 
L 196.189968 221.727181 
L 197.821398 222.864188 
L 199.452828 223.863179 
L 201.084258 226.20443 
L 202.715688 227.967073 
L 204.347117 228.625497 
L 205.978547 230.426814 
L 207.609977 230.793976 
L 209.241407 232.150317 
L 210.872837 233.310918 
L 212.504267 233.440112 
L 214.135697 234.663191 
L 215.767127 236.41078 
L 217.398556 236.636741 
L 219.029986 237.328354 
L 220.661416 238.425022 
L 222.292846 240.313546 
L 223.924276 240.531538 
L 227.187136 242.69914 
L 228.818566 242.644254 
L 230.449995 243.434509 
L 232.081425 243.168217 
L 233.712855 244.969397 
L 235.344285 245.366008 
L 236.975715 245.44494 
L 238.607145 246.589843 
L 240.238575 247.587958 
L 241.870005 247.228564 
L 243.501434 248.339418 
L 245.132864 248.533824 
L 246.764294 249.220193 
L 250.027154 250.095701 
L 251.658584 251.538509 
L 253.290014 247.715149 
L 254.921444 251.140338 
L 256.552873 252.457539 
L 259.815733 252.478665 
L 261.447163 253.91126 
L 263.078593 254.11193 
L 266.341453 255.078287 
L 267.972883 254.998149 
L 269.604312 255.303734 
L 271.235742 253.608828 
L 272.867172 255.846234 
L 274.498602 256.211152 
L 276.130032 256.835132 
L 277.761462 257.130359 
L 279.392892 257.985601 
L 281.024322 256.922363 
L 282.655751 257.403318 
L 284.287181 258.961692 
L 285.918611 258.24172 
L 287.550041 257.824843 
L 290.812901 259.165824 
L 292.444331 260.164932 
L 297.33862 260.120874 
L 298.97005 260.222311 
L 300.60148 260.806017 
L 302.23291 260.211285 
L 303.86434 261.450432 
L 305.49577 262.137614 
L 307.1272 262.019547 
L 308.75863 261.460738 
L 310.390059 261.564438 
L 312.021489 262.902456 
L 313.652919 263.028272 
L 315.284349 262.458257 
L 316.915779 264.09529 
L 320.178639 263.705253 
L 321.810069 263.791249 
L 323.441498 264.500651 
L 325.072928 262.026451 
L 326.704358 264.824511 
L 328.335788 265.170796 
L 329.967218 264.665972 
L 331.598648 265.250708 
L 333.230078 265.358184 
L 334.861508 265.781109 
L 336.492937 265.267584 
L 338.124367 265.740445 
L 339.755797 266.684276 
L 343.018657 266.292876 
L 344.650087 266.635514 
L 346.281517 267.097317 
L 347.912947 267.178963 
L 349.544376 266.66157 
L 351.175806 267.41445 
L 352.807236 267.72135 
L 354.438666 267.58561 
L 356.070096 268.101744 
L 359.332956 267.760007 
L 360.964386 268.400469 
L 362.595815 268.088885 
L 364.227245 268.689029 
L 365.858675 268.516088 
L 367.490105 269.168014 
L 369.121535 269.079026 
L 370.752965 269.587525 
L 372.384395 268.964815 
L 374.015825 269.925687 
L 375.647254 269.874476 
L 377.278684 269.29876 
L 378.910114 269.989439 
L 382.172974 270.241566 
L 383.804404 270.127503 
L 385.435834 270.267199 
L 387.067264 270.255856 
L 388.698693 271.450326 
L 390.330123 271.532321 
L 391.961553 270.868103 
L 393.592983 270.832554 
L 395.224413 271.080265 
L 396.855843 271.610806 
L 398.487273 271.399698 
L 398.487273 271.399698 
" clip-path="url(#p0e4a9f094d)" style="fill: none; stroke: #d62728; stroke-width: 1.5; stroke-linecap: square"/>
   </g>
   <g id="line2d_21">
    <path d="M 73.832727 76.694107 
L 75.464157 102.14785 
L 78.727017 124.163255 
L 80.358447 125.743797 
L 81.989877 129.704827 
L 83.621307 134.217902 
L 85.252736 132.648442 
L 86.884166 143.850059 
L 88.515596 150.867339 
L 90.147026 152.306456 
L 91.778456 154.814858 
L 93.409886 160.604105 
L 95.041316 165.533945 
L 96.672746 175.810549 
L 98.304175 186.952801 
L 99.935605 194.162154 
L 101.567035 198.746223 
L 103.198465 200.23212 
L 104.829895 205.252536 
L 106.461325 214.42993 
L 108.092755 217.636902 
L 109.724185 221.240267 
L 111.355614 223.661704 
L 112.987044 228.137731 
L 114.618474 229.291118 
L 116.249904 229.968803 
L 117.881334 225.626972 
L 119.512764 233.010891 
L 121.144194 233.785922 
L 122.775624 233.655941 
L 124.407053 237.300103 
L 127.669913 218.343826 
L 129.301343 226.275432 
L 130.932773 231.578336 
L 132.564203 233.944847 
L 134.195633 237.077422 
L 135.827063 237.454057 
L 137.458492 240.479113 
L 139.089922 240.973104 
L 140.721352 242.057194 
L 142.352782 241.034085 
L 143.984212 244.327194 
L 145.615642 244.8203 
L 147.247072 243.988927 
L 148.878502 246.89316 
L 150.509931 243.679643 
L 152.141361 242.589754 
L 153.772791 246.135531 
L 155.404221 248.793296 
L 158.667081 248.941911 
L 163.56137 252.879555 
L 165.1928 253.820387 
L 166.82423 253.366243 
L 168.45566 256.79436 
L 170.08709 256.788135 
L 171.71852 256.6263 
L 173.34995 257.184722 
L 174.98138 258.735035 
L 176.61281 256.768473 
L 178.244239 257.482474 
L 179.875669 252.781307 
L 181.507099 259.604652 
L 183.138529 260.16876 
L 184.769959 259.429374 
L 186.401389 261.106198 
L 188.032819 261.248439 
L 189.664249 261.579075 
L 191.295678 262.518423 
L 192.927108 261.91805 
L 194.558538 263.317986 
L 196.189968 259.67879 
L 197.821398 263.020315 
L 201.084258 265.06225 
L 202.715688 264.643017 
L 204.347117 265.277765 
L 207.609977 266.099577 
L 209.241407 265.504837 
L 210.872837 267.450719 
L 214.135697 267.412054 
L 215.767127 269.437796 
L 217.398556 268.683275 
L 219.029986 267.571368 
L 220.661416 268.609282 
L 222.292846 269.304011 
L 223.924276 268.143273 
L 225.555706 270.891268 
L 227.187136 270.00303 
L 228.818566 269.625245 
L 230.449995 269.879511 
L 232.081425 271.915909 
L 235.344285 271.095171 
L 236.975715 272.125602 
L 238.607145 272.275101 
L 240.238575 269.206129 
L 241.870005 272.584867 
L 245.132864 272.885599 
L 246.764294 273.69513 
L 248.395724 273.026381 
L 250.027154 274.439583 
L 251.658584 274.518241 
L 253.290014 274.180066 
L 254.921444 275.822495 
L 256.552873 275.44333 
L 258.184303 275.688866 
L 259.815733 276.076688 
L 261.447163 275.615299 
L 263.078593 276.946642 
L 266.341453 276.370246 
L 267.972883 276.584836 
L 269.604312 277.191197 
L 271.235742 277.332332 
L 272.867172 278.33998 
L 274.498602 278.04015 
L 276.130032 277.280727 
L 277.761462 277.751783 
L 279.392892 279.252762 
L 281.024322 279.030471 
L 281.024322 279.030471 
" clip-path="url(#p0e4a9f094d)" style="fill: none; stroke: #9467bd; stroke-width: 1.5; stroke-linecap: square"/>
   </g>
   <g id="line2d_22">
    <path d="M 73.832727 68.129305 
L 75.464157 99.096312 
L 77.095587 104.851043 
L 78.727017 116.177889 
L 80.358447 123.157018 
L 81.989877 125.116656 
L 83.621307 123.336434 
L 85.252736 135.683349 
L 86.884166 130.986773 
L 88.515596 133.504102 
L 90.147026 138.378082 
L 91.778456 143.533465 
L 93.409886 144.264073 
L 95.041316 145.305292 
L 96.672746 146.15098 
L 98.304175 151.246451 
L 99.935605 152.709195 
L 101.567035 163.913225 
L 103.198465 178.45071 
L 104.829895 187.496628 
L 106.461325 195.856119 
L 108.092755 201.585566 
L 109.724185 209.645714 
L 111.355614 211.869376 
L 112.987044 212.359105 
L 114.618474 212.513759 
L 116.249904 211.287431 
L 117.881334 220.301237 
L 119.512764 223.149563 
L 121.144194 222.203633 
L 122.775624 224.614197 
L 124.407053 229.658047 
L 126.038483 228.679603 
L 127.669913 231.408482 
L 129.301343 227.787891 
L 130.932773 231.015297 
L 132.564203 233.765271 
L 134.195633 235.868626 
L 135.827063 236.389372 
L 137.458492 235.790137 
L 139.089922 237.914168 
L 140.721352 235.993653 
L 142.352782 237.475449 
L 143.984212 238.042895 
L 145.615642 239.263464 
L 147.247072 241.242202 
L 148.878502 239.56802 
L 150.509931 243.221591 
L 152.141361 245.470296 
L 153.772791 244.404565 
L 155.404221 240.60525 
L 157.035651 239.130154 
L 158.667081 243.663559 
L 160.298511 243.069245 
L 161.929941 241.908507 
L 163.56137 243.561724 
L 165.1928 247.346427 
L 166.82423 246.189661 
L 168.45566 247.145306 
L 170.08709 245.956084 
L 171.71852 249.203177 
L 173.34995 246.710721 
L 174.98138 249.91413 
L 176.61281 251.24099 
L 178.244239 250.386295 
L 179.875669 250.772886 
L 181.507099 248.032089 
L 183.138529 251.901746 
L 184.769959 248.424397 
L 186.401389 250.236281 
L 188.032819 251.603841 
L 189.664249 250.845585 
L 191.295678 251.725958 
L 192.927108 253.516965 
L 194.558538 252.663235 
L 196.189968 252.01993 
L 197.821398 252.193032 
L 199.452828 255.894525 
L 201.084258 253.72895 
L 202.715688 254.470664 
L 204.347117 254.832727 
L 205.978547 256.446619 
L 207.609977 253.665797 
L 209.241407 254.83473 
L 210.872837 256.259572 
L 212.504267 256.323803 
L 214.135697 255.444178 
L 215.767127 258.493223 
L 217.398556 258.669879 
L 219.029986 259.595391 
L 220.661416 259.376354 
L 222.292846 257.814694 
L 223.924276 258.647462 
L 225.555706 259.212435 
L 227.187136 261.003205 
L 228.818566 261.964186 
L 230.449995 261.798921 
L 232.081425 260.755152 
L 233.712855 261.436069 
L 235.344285 261.887534 
" clip-path="url(#p0e4a9f094d)" style="fill: none; stroke: #8c564b; stroke-width: 1.5; stroke-linecap: square"/>
   </g>
   <g id="line2d_23">
    <path d="M 73.832727 74.556919 
L 75.464157 154.737833 
L 77.095587 182.670191 
L 78.727017 197.557917 
L 80.358447 202.686818 
L 81.989877 206.476475 
L 83.621307 207.377435 
L 85.252736 216.412914 
L 86.884166 219.329492 
L 88.515596 224.092727 
L 90.147026 231.328144 
L 93.409886 235.630698 
L 95.041316 240.792571 
L 96.672746 242.560401 
L 98.304175 243.174667 
L 99.935605 247.071273 
L 103.198465 247.350383 
L 104.829895 249.921103 
L 106.461325 250.697429 
L 108.092755 252.592378 
L 109.724185 248.795266 
L 111.355614 253.63958 
L 112.987044 254.355359 
L 114.618474 257.153672 
L 116.249904 257.283139 
L 117.881334 256.438199 
L 119.512764 259.293047 
L 121.144194 258.588527 
L 122.775624 261.275126 
L 124.407053 259.693402 
L 126.038483 262.123524 
L 127.669913 261.033889 
L 129.301343 263.056729 
L 130.932773 262.007862 
L 132.564203 263.986044 
L 134.195633 266.466573 
L 135.827063 265.067964 
L 137.458492 266.050806 
L 139.089922 266.521749 
L 140.721352 267.605618 
L 142.352782 266.365233 
L 143.984212 269.455605 
L 145.615642 269.533901 
L 147.247072 270.292841 
L 148.878502 269.433514 
L 150.509931 271.250637 
L 152.141361 270.921039 
L 153.772791 272.079148 
L 155.404221 272.063896 
L 157.035651 273.254956 
L 158.667081 272.234783 
L 160.298511 273.984068 
L 161.929941 272.50703 
L 163.56137 275.004777 
L 165.1928 275.966152 
L 166.82423 275.535732 
L 168.45566 275.660096 
L 170.08709 276.388091 
L 171.71852 277.767854 
L 174.98138 279.148326 
L 176.61281 278.190276 
L 178.244239 279.723753 
L 179.875669 280.051803 
L 181.507099 281.4502 
L 183.138529 281.763444 
L 184.769959 281.341513 
L 186.401389 280.241821 
L 188.032819 281.836618 
L 189.664249 282.132154 
L 191.295678 281.810988 
L 192.927108 283.495717 
L 194.558538 284.838959 
L 196.189968 284.638019 
L 197.821398 283.256913 
L 199.452828 284.798616 
L 201.084258 284.291803 
L 202.715688 285.640203 
L 204.347117 286.527158 
L 205.978547 285.076115 
L 207.609977 285.714852 
L 209.241407 286.681245 
L 210.872837 287.908168 
L 212.504267 286.985049 
L 214.135697 287.985547 
L 215.767127 287.03283 
L 217.398556 288.035572 
L 219.029986 288.571228 
L 220.661416 287.976046 
L 222.292846 288.381439 
L 223.924276 287.644051 
L 227.187136 289.862696 
L 228.818566 289.539728 
L 230.449995 289.734906 
L 232.081425 290.307116 
L 233.712855 289.868373 
L 235.344285 290.778919 
L 236.975715 290.317675 
L 238.607145 290.791332 
L 240.238575 290.079015 
L 241.870005 290.972424 
L 245.132864 291.517823 
L 246.764294 292.71293 
L 248.395724 289.951137 
L 250.027154 292.264185 
L 251.658584 291.709337 
L 253.290014 291.449418 
L 254.921444 292.643279 
L 256.552873 292.431895 
L 258.184303 292.729973 
L 259.815733 292.350669 
L 261.447163 293.388441 
L 263.078593 294.210676 
L 264.710023 292.894032 
L 266.341453 293.699661 
L 269.604312 293.389693 
L 271.235742 293.137509 
L 272.867172 293.655197 
L 274.498602 294.706571 
L 276.130032 294.792829 
L 279.392892 294.237482 
L 281.024322 294.943086 
L 282.655751 294.999456 
L 284.287181 294.441254 
L 285.918611 295.234463 
L 287.550041 295.127573 
L 289.181471 294.328012 
L 290.812901 295.488 
L 290.812901 295.488 
" clip-path="url(#p0e4a9f094d)" style="fill: none; stroke: #e377c2; stroke-width: 1.5; stroke-linecap: square"/>
   </g>
   <g id="line2d_24">
    <path d="M 73.832727 61.27452 
L 75.464157 86.200569 
L 77.095587 94.661694 
L 78.727017 104.092626 
L 80.358447 110.03697 
L 81.989877 142.629264 
L 83.621307 181.735785 
L 85.252736 199.989897 
L 86.884166 213.07732 
L 88.515596 217.017714 
L 90.147026 225.685991 
L 91.778456 218.778395 
L 93.409886 226.864832 
L 95.041316 234.082661 
L 96.672746 240.588306 
L 98.304175 241.569082 
L 99.935605 244.804136 
L 101.567035 249.362463 
L 103.198465 249.790092 
L 104.829895 252.438994 
L 106.461325 254.870999 
L 108.092755 256.915165 
L 109.724185 258.581712 
L 111.355614 258.746704 
L 112.987044 260.707041 
L 114.618474 262.017496 
L 116.249904 261.80921 
L 117.881334 264.839014 
L 119.512764 265.338429 
L 121.144194 265.830743 
L 122.775624 268.885075 
L 124.407053 267.989741 
L 126.038483 268.612961 
" clip-path="url(#p0e4a9f094d)" style="fill: none; stroke: #7f7f7f; stroke-width: 1.5; stroke-linecap: square"/>
   </g>
   <g id="patch_3">
    <path d="M 57.6 307.584 
L 57.6 41.472 
" style="fill: none; stroke: #000000; stroke-width: 0.8; stroke-linejoin: miter; stroke-linecap: square"/>
   </g>
   <g id="patch_4">
    <path d="M 414.72 307.584 
L 414.72 41.472 
" style="fill: none; stroke: #000000; stroke-width: 0.8; stroke-linejoin: miter; stroke-linecap: square"/>
   </g>
   <g id="patch_5">
    <path d="M 57.6 307.584 
L 414.72 307.584 
" style="fill: none; stroke: #000000; stroke-width: 0.8; stroke-linejoin: miter; stroke-linecap: square"/>
   </g>
   <g id="patch_6">
    <path d="M 57.6 41.472 
L 414.72 41.472 
" style="fill: none; stroke: #000000; stroke-width: 0.8; stroke-linejoin: miter; stroke-linecap: square"/>
   </g>
   <g id="legend_1">
    <g id="patch_7">
     <path d="M 335.552813 166.897 
L 407.72 166.897 
Q 409.72 166.897 409.72 164.897 
L 409.72 48.472 
Q 409.72 46.472 407.72 46.472 
L 335.552813 46.472 
Q 333.552813 46.472 333.552813 48.472 
L 333.552813 164.897 
Q 333.552813 166.897 335.552813 166.897 
z
" style="fill: #ffffff; opacity: 0.8; stroke: #cccccc; stroke-linejoin: miter"/>
    </g>
    <g id="line2d_25">
     <path d="M 337.552813 54.570438 
L 347.552813 54.570438 
L 357.552813 54.570438 
" style="fill: none; stroke: #1f77b4; stroke-width: 1.5; stroke-linecap: square"/>
    </g>
    <g id="text_18">
     <!-- n=10 -->
     <g transform="translate(365.552813 58.070438) scale(0.1 -0.1)">
      <defs>
       <path id="DejaVuSans-6e" d="M 3513 2113 
L 3513 0 
L 2938 0 
L 2938 2094 
Q 2938 2591 2744 2837 
Q 2550 3084 2163 3084 
Q 1697 3084 1428 2787 
Q 1159 2491 1159 1978 
L 1159 0 
L 581 0 
L 581 3500 
L 1159 3500 
L 1159 2956 
Q 1366 3272 1645 3428 
Q 1925 3584 2291 3584 
Q 2894 3584 3203 3211 
Q 3513 2838 3513 2113 
z
" transform="scale(0.015625)"/>
       <path id="DejaVuSans-3d" d="M 678 2906 
L 4684 2906 
L 4684 2381 
L 678 2381 
L 678 2906 
z
M 678 1631 
L 4684 1631 
L 4684 1100 
L 678 1100 
L 678 1631 
z
" transform="scale(0.015625)"/>
      </defs>
      <use xlink:href="#DejaVuSans-6e"/>
      <use xlink:href="#DejaVuSans-3d" x="63.378906"/>
      <use xlink:href="#DejaVuSans-31" x="147.167969"/>
      <use xlink:href="#DejaVuSans-30" x="210.791016"/>
     </g>
    </g>
    <g id="line2d_26">
     <path d="M 337.552813 69.248563 
L 347.552813 69.248563 
L 357.552813 69.248563 
" style="fill: none; stroke: #ff7f0e; stroke-width: 1.5; stroke-linecap: square"/>
    </g>
    <g id="text_19">
     <!-- n=25 -->
     <g transform="translate(365.552813 72.748563) scale(0.1 -0.1)">
      <use xlink:href="#DejaVuSans-6e"/>
      <use xlink:href="#DejaVuSans-3d" x="63.378906"/>
      <use xlink:href="#DejaVuSans-32" x="147.167969"/>
      <use xlink:href="#DejaVuSans-35" x="210.791016"/>
     </g>
    </g>
    <g id="line2d_27">
     <path d="M 337.552813 83.926688 
L 347.552813 83.926688 
L 357.552813 83.926688 
" style="fill: none; stroke: #2ca02c; stroke-width: 1.5; stroke-linecap: square"/>
    </g>
    <g id="text_20">
     <!-- n=50 -->
     <g transform="translate(365.552813 87.426688) scale(0.1 -0.1)">
      <use xlink:href="#DejaVuSans-6e"/>
      <use xlink:href="#DejaVuSans-3d" x="63.378906"/>
      <use xlink:href="#DejaVuSans-35" x="147.167969"/>
      <use xlink:href="#DejaVuSans-30" x="210.791016"/>
     </g>
    </g>
    <g id="line2d_28">
     <path d="M 337.552813 98.604813 
L 347.552813 98.604813 
L 357.552813 98.604813 
" style="fill: none; stroke: #d62728; stroke-width: 1.5; stroke-linecap: square"/>
    </g>
    <g id="text_21">
     <!-- n=100 -->
     <g transform="translate(365.552813 102.104813) scale(0.1 -0.1)">
      <use xlink:href="#DejaVuSans-6e"/>
      <use xlink:href="#DejaVuSans-3d" x="63.378906"/>
      <use xlink:href="#DejaVuSans-31" x="147.167969"/>
      <use xlink:href="#DejaVuSans-30" x="210.791016"/>
      <use xlink:href="#DejaVuSans-30" x="274.414062"/>
     </g>
    </g>
    <g id="line2d_29">
     <path d="M 337.552813 113.282938 
L 347.552813 113.282938 
L 357.552813 113.282938 
" style="fill: none; stroke: #9467bd; stroke-width: 1.5; stroke-linecap: square"/>
    </g>
    <g id="text_22">
     <!-- n=200 -->
     <g transform="translate(365.552813 116.782938) scale(0.1 -0.1)">
      <use xlink:href="#DejaVuSans-6e"/>
      <use xlink:href="#DejaVuSans-3d" x="63.378906"/>
      <use xlink:href="#DejaVuSans-32" x="147.167969"/>
      <use xlink:href="#DejaVuSans-30" x="210.791016"/>
      <use xlink:href="#DejaVuSans-30" x="274.414062"/>
     </g>
    </g>
    <g id="line2d_30">
     <path d="M 337.552813 127.961063 
L 347.552813 127.961063 
L 357.552813 127.961063 
" style="fill: none; stroke: #8c564b; stroke-width: 1.5; stroke-linecap: square"/>
    </g>
    <g id="text_23">
     <!-- n=500 -->
     <g transform="translate(365.552813 131.461063) scale(0.1 -0.1)">
      <use xlink:href="#DejaVuSans-6e"/>
      <use xlink:href="#DejaVuSans-3d" x="63.378906"/>
      <use xlink:href="#DejaVuSans-35" x="147.167969"/>
      <use xlink:href="#DejaVuSans-30" x="210.791016"/>
      <use xlink:href="#DejaVuSans-30" x="274.414062"/>
     </g>
    </g>
    <g id="line2d_31">
     <path d="M 337.552813 142.639188 
L 347.552813 142.639188 
L 357.552813 142.639188 
" style="fill: none; stroke: #e377c2; stroke-width: 1.5; stroke-linecap: square"/>
    </g>
    <g id="text_24">
     <!-- n=1000 -->
     <g transform="translate(365.552813 146.139188) scale(0.1 -0.1)">
      <use xlink:href="#DejaVuSans-6e"/>
      <use xlink:href="#DejaVuSans-3d" x="63.378906"/>
      <use xlink:href="#DejaVuSans-31" x="147.167969"/>
      <use xlink:href="#DejaVuSans-30" x="210.791016"/>
      <use xlink:href="#DejaVuSans-30" x="274.414062"/>
      <use xlink:href="#DejaVuSans-30" x="338.037109"/>
     </g>
    </g>
    <g id="line2d_32">
     <path d="M 337.552813 157.317313 
L 347.552813 157.317313 
L 357.552813 157.317313 
" style="fill: none; stroke: #7f7f7f; stroke-width: 1.5; stroke-linecap: square"/>
    </g>
    <g id="text_25">
     <!-- n=2000 -->
     <g transform="translate(365.552813 160.817313) scale(0.1 -0.1)">
      <use xlink:href="#DejaVuSans-6e"/>
      <use xlink:href="#DejaVuSans-3d" x="63.378906"/>
      <use xlink:href="#DejaVuSans-32" x="147.167969"/>
      <use xlink:href="#DejaVuSans-30" x="210.791016"/>
      <use xlink:href="#DejaVuSans-30" x="274.414062"/>
      <use xlink:href="#DejaVuSans-30" x="338.037109"/>
     </g>
    </g>
   </g>
  </g>
 </g>
 <defs>
  <clipPath id="p0e4a9f094d">
   <rect x="57.6" y="41.472" width="357.12" height="266.112"/>
  </clipPath>
 </defs>
</svg>
